<svg width="96" height="100" viewBox="0 0 96 100" fill="none" xmlns="http://www.w3.org/2000/svg">
<rect x="0.5" y="0.5" width="95" height="99" stroke="black" stroke-dasharray="2 2"/>
<path d="M24.3121 44.9173L15.2172 45.1877L15.8889 42.6325L21.3852 42.8436L21.4025 42.7777L16.5693 40.0443L17.098 38.0331L22.6671 38.0343L22.6845 37.9683L17.7785 35.4449L18.4502 32.8896L26.2363 37.5978L25.6599 39.7904L20.568 39.9851L20.5507 40.0511L24.8885 42.7248L24.3121 44.9173Z" fill="black"/>
<path d="M29.8466 32.2282L24.056 25.6986L28.7619 21.5254L30.0286 22.9537L27.0954 25.5549L28.0906 26.6772L30.7815 24.2908L32.0482 25.7192L29.3573 28.1055L30.3526 29.2278L33.273 26.6379L34.5397 28.0662L29.8466 32.2282Z" fill="black"/>
<path d="M39.8908 25.2497L37.8563 16.7629L40.1603 16.2105L41.7498 22.8408L45.181 22.0183L45.6261 23.8747L39.8908 25.2497Z" fill="black"/>
<path d="M60.4095 21.9224C60.1279 22.8523 59.7095 23.582 59.1543 24.1114C58.6 24.6381 57.9658 24.9728 57.2516 25.1157C56.5383 25.2558 55.8037 25.2114 55.0479 24.9825C54.2866 24.7519 53.6485 24.379 53.1337 23.8639C52.6224 23.3469 52.2823 22.7155 52.1134 21.9698C51.9481 21.2221 52.0054 20.3861 52.2854 19.4616C52.5671 18.5318 52.9837 17.8031 53.5353 17.2756C54.0905 16.7461 54.7233 16.411 55.4339 16.27C56.1481 16.1271 56.8858 16.171 57.6471 16.4016C58.4029 16.6305 59.0383 17.0026 59.5531 17.5177C60.0687 18.0301 60.4106 18.6605 60.5787 19.409C60.7476 20.1548 60.6912 20.9926 60.4095 21.9224ZM58.0767 21.2158C58.2282 20.7155 58.2893 20.2739 58.2598 19.891C58.2339 19.5062 58.1186 19.1863 57.9138 18.9313C57.7126 18.6744 57.4244 18.4892 57.0491 18.3755C56.6739 18.2619 56.33 18.2556 56.0174 18.3569C55.7082 18.4562 55.4348 18.6583 55.197 18.9633C54.9627 19.2663 54.7698 19.668 54.6182 20.1682C54.4667 20.6685 54.4039 21.1111 54.4298 21.4959C54.4593 21.8789 54.5746 22.1988 54.7758 22.4556C54.9806 22.7106 55.2706 22.8949 55.6458 23.0086C56.021 23.1222 56.3632 23.1294 56.6723 23.0301C56.9849 22.9289 57.2584 22.7267 57.4927 22.4237C57.7305 22.1187 57.9252 21.7161 58.0767 21.2158Z" fill="black"/>
<path d="M63.9778 29.3737L70.4947 23.569L73.0116 26.3947C73.4537 26.8911 73.7582 27.3675 73.925 27.8238C74.0937 28.2823 74.1326 28.7061 74.0417 29.0952C73.9527 29.4865 73.7427 29.8295 73.4117 30.1243C73.172 30.3378 72.9063 30.4794 72.6145 30.549C72.3246 30.6208 72.0288 30.6218 71.727 30.5521C71.4273 30.4804 71.1395 30.341 70.8638 30.1339L70.8001 30.1906C71.0389 30.4801 71.1946 30.798 71.2672 31.1442C71.3418 31.4886 71.3251 31.8307 71.2169 32.1706C71.1108 32.5085 70.904 32.8145 70.5964 33.0885C70.24 33.4059 69.8397 33.5951 69.3955 33.6559C68.9532 33.7189 68.5004 33.6504 68.0371 33.4506C67.5738 33.2508 67.1314 32.9143 66.71 32.4413L63.9778 29.3737ZM66.9665 29.8845L67.7034 30.7119C67.968 31.0089 68.2215 31.1825 68.4641 31.2327C68.7088 31.2811 68.9404 31.2079 69.1589 31.0133C69.3117 30.8773 69.4099 30.727 69.4536 30.5625C69.4973 30.398 69.4891 30.2265 69.429 30.048C69.3708 29.8716 69.2614 29.6932 69.1008 29.5129L68.3412 28.6601L66.9665 29.8845ZM69.4358 27.6851L70.082 28.4106C70.22 28.5655 70.3662 28.6806 70.5209 28.7559C70.6755 28.8312 70.8277 28.8612 70.9775 28.8457C71.1313 28.8304 71.275 28.7633 71.4086 28.6442C71.6102 28.4647 71.6997 28.2556 71.6773 28.0169C71.657 27.7762 71.5486 27.5456 71.3521 27.325L70.6832 26.574L69.4358 27.6851Z" fill="black"/>
<path d="M71.5434 41.539L71.0399 39.0323L80.1635 40.1377L80.8014 43.3129L72.8124 47.856L72.3088 45.3492L78.1328 42.232L78.1194 42.1652L71.5434 41.539ZM74.8252 40.3929L75.7719 45.1056L74.0339 45.4547L73.0872 40.7421L74.8252 40.3929Z" fill="black"/>
<path d="M41.5689 46V39.4545H44.1896C44.6712 39.4545 45.0728 39.5259 45.3945 39.6687C45.7163 39.8114 45.9581 40.0096 46.12 40.2631C46.282 40.5146 46.3629 40.8043 46.3629 41.1325C46.3629 41.3881 46.3118 41.6129 46.2095 41.8068C46.1072 41.9986 45.9666 42.1562 45.7876 42.2798C45.6108 42.4013 45.4084 42.4876 45.1804 42.5387V42.6026C45.4297 42.6133 45.663 42.6836 45.8803 42.8136C46.0998 42.9435 46.2777 43.1257 46.4141 43.3601C46.5504 43.5923 46.6186 43.8693 46.6186 44.1911C46.6186 44.5384 46.5323 44.8484 46.3597 45.1211C46.1893 45.3917 45.9368 45.6058 45.6023 45.7635C45.2678 45.9212 44.8555 46 44.3654 46H41.5689ZM42.9528 44.8686H44.081C44.4666 44.8686 44.7479 44.7951 44.9247 44.6481C45.1016 44.4989 45.19 44.3008 45.19 44.0536C45.19 43.8725 45.1463 43.7127 45.0589 43.5742C44.9716 43.4357 44.8469 43.3271 44.685 43.2482C44.5252 43.1694 44.3345 43.13 44.1129 43.13H42.9528V44.8686ZM42.9528 42.1935H43.9787C44.1683 42.1935 44.3366 42.1605 44.4837 42.0945C44.6328 42.0263 44.75 41.9304 44.8352 41.8068C44.9226 41.6832 44.9663 41.5352 44.9663 41.3626C44.9663 41.1261 44.8821 40.9354 44.7138 40.7905C44.5476 40.6456 44.3111 40.5732 44.0043 40.5732H42.9528V42.1935ZM47.1356 39.4545H48.6856L50.1782 42.2734H50.2421L51.7346 39.4545H53.2847L50.8973 43.6861V46H49.523V43.6861L47.1356 39.4545Z" fill="black"/>
<path d="M13.5689 61V54.4545H16.1896C16.6712 54.4545 17.0728 54.5259 17.3945 54.6687C17.7163 54.8114 17.9581 55.0096 18.12 55.2631C18.282 55.5146 18.3629 55.8043 18.3629 56.1325C18.3629 56.3881 18.3118 56.6129 18.2095 56.8068C18.1072 56.9986 17.9666 57.1562 17.7876 57.2798C17.6108 57.4013 17.4084 57.4876 17.1804 57.5387V57.6026C17.4297 57.6133 17.663 57.6836 17.8803 57.8136C18.0998 57.9435 18.2777 58.1257 18.4141 58.3601C18.5504 58.5923 18.6186 58.8693 18.6186 59.1911C18.6186 59.5384 18.5323 59.8484 18.3597 60.1211C18.1893 60.3917 17.9368 60.6058 17.6023 60.7635C17.2678 60.9212 16.8555 61 16.3654 61H13.5689ZM14.9528 59.8686H16.081C16.4666 59.8686 16.7479 59.7951 16.9247 59.6481C17.1016 59.4989 17.19 59.3008 17.19 59.0536C17.19 58.8725 17.1463 58.7127 17.0589 58.5742C16.9716 58.4357 16.8469 58.3271 16.685 58.2482C16.5252 58.1694 16.3345 58.13 16.1129 58.13H14.9528V59.8686ZM14.9528 57.1935H15.9787C16.1683 57.1935 16.3366 57.1605 16.4837 57.0945C16.6328 57.0263 16.75 56.9304 16.8352 56.8068C16.9226 56.6832 16.9663 56.5352 16.9663 56.3626C16.9663 56.1261 16.8821 55.9354 16.7138 55.7905C16.5476 55.6456 16.3111 55.5732 16.0043 55.5732H14.9528V57.1935ZM19.5191 61V54.4545H22.1015C22.5958 54.4545 23.0177 54.543 23.3671 54.7198C23.7187 54.8945 23.9861 55.1428 24.1693 55.4645C24.3547 55.7841 24.4474 56.1602 24.4474 56.5927C24.4474 57.0273 24.3536 57.4013 24.1661 57.7145C23.9786 58.0256 23.7069 58.2642 23.3511 58.4304C22.9974 58.5966 22.5692 58.6797 22.0663 58.6797H20.3373V57.5675H21.8426C22.1068 57.5675 22.3263 57.5312 22.501 57.4588C22.6757 57.3864 22.8057 57.2777 22.8909 57.1328C22.9782 56.9879 23.0219 56.8079 23.0219 56.5927C23.0219 56.3754 22.9782 56.1921 22.8909 56.043C22.8057 55.8938 22.6746 55.7809 22.4978 55.7042C22.3231 55.6254 22.1025 55.5859 21.8362 55.5859H20.903V61H19.5191ZM23.0539 58.0213L24.6807 61H23.153L21.5613 58.0213H23.0539ZM26.8092 54.4545V61H25.4253V54.4545H26.8092ZM29.076 61H27.593L29.8526 54.4545H31.636L33.8924 61H32.4094L30.7699 55.9503H30.7188L29.076 61ZM28.9833 58.4272H32.4862V59.5075H28.9833V58.4272ZM40.155 54.4545V61H38.9597L36.112 56.8803H36.0641V61H34.6802V54.4545H35.8947L38.72 58.571H38.7775V54.4545H40.155ZM44.8548 61L42.9819 54.4545H44.4936L45.5771 59.0025H45.6314L46.8267 54.4545H48.1211L49.3132 59.0121H49.3707L50.4542 54.4545H51.9659L50.093 61H48.7443L47.4979 56.7205H47.4467L46.2035 61H44.8548ZM52.7066 61V54.4545H57.1171V55.5955H54.0905V57.1552H56.8902V58.2962H54.0905V59.859H57.1299V61H52.7066ZM58.2173 61V54.4545H59.6012V59.859H62.4073V61H58.2173ZM69.0838 57.7273C69.0838 58.4411 68.9485 59.0483 68.6779 59.549C68.4094 60.0497 68.043 60.4322 67.5785 60.6964C67.1161 60.9585 66.5962 61.0895 66.0188 61.0895C65.4371 61.0895 64.9151 60.9574 64.4528 60.6932C63.9904 60.429 63.625 60.0465 63.3565 59.5458C63.0881 59.0451 62.9538 58.4389 62.9538 57.7273C62.9538 57.0135 63.0881 56.4062 63.3565 55.9055C63.625 55.4048 63.9904 55.0234 64.4528 54.7614C64.9151 54.4972 65.4371 54.3651 66.0188 54.3651C66.5962 54.3651 67.1161 54.4972 67.5785 54.7614C68.043 55.0234 68.4094 55.4048 68.6779 55.9055C68.9485 56.4062 69.0838 57.0135 69.0838 57.7273ZM67.6808 57.7273C67.6808 57.2649 67.6115 56.875 67.473 56.5575C67.3366 56.2401 67.1438 55.9993 66.8945 55.8352C66.6452 55.6712 66.3533 55.5891 66.0188 55.5891C65.6843 55.5891 65.3924 55.6712 65.1431 55.8352C64.8938 55.9993 64.6999 56.2401 64.5614 56.5575C64.4251 56.875 64.3569 57.2649 64.3569 57.7273C64.3569 58.1896 64.4251 58.5795 64.5614 58.897C64.6999 59.2145 64.8938 59.4553 65.1431 59.6193C65.3924 59.7834 65.6843 59.8654 66.0188 59.8654C66.3533 59.8654 66.6452 59.7834 66.8945 59.6193C67.1438 59.4553 67.3366 59.2145 67.473 58.897C67.6115 58.5795 67.6808 58.1896 67.6808 57.7273ZM70.1089 61V54.4545H72.7297C73.2112 54.4545 73.6128 54.5259 73.9346 54.6687C74.2563 54.8114 74.4981 55.0096 74.6601 55.2631C74.822 55.5146 74.903 55.8043 74.903 56.1325C74.903 56.3881 74.8518 56.6129 74.7496 56.8068C74.6473 56.9986 74.5067 57.1562 74.3277 57.2798C74.1508 57.4013 73.9484 57.4876 73.7204 57.5387V57.6026C73.9697 57.6133 74.203 57.6836 74.4204 57.8136C74.6398 57.9435 74.8177 58.1257 74.9541 58.3601C75.0905 58.5923 75.1586 58.8693 75.1586 59.1911C75.1586 59.5384 75.0724 59.8484 74.8998 60.1211C74.7293 60.3917 74.4768 60.6058 74.1423 60.7635C73.8078 60.9212 73.3955 61 72.9055 61H70.1089ZM71.4928 59.8686H72.621C73.0067 59.8686 73.2879 59.7951 73.4648 59.6481C73.6416 59.4989 73.73 59.3008 73.73 59.0536C73.73 58.8725 73.6863 58.7127 73.599 58.5742C73.5116 58.4357 73.387 58.3271 73.2251 58.2482C73.0653 58.1694 72.8746 58.13 72.653 58.13H71.4928V59.8686ZM71.4928 57.1935H72.5187C72.7084 57.1935 72.8767 57.1605 73.0237 57.0945C73.1729 57.0263 73.29 56.9304 73.3753 56.8068C73.4626 56.6832 73.5063 56.5352 73.5063 56.3626C73.5063 56.1261 73.4221 55.9354 73.2538 55.7905C73.0876 55.6456 72.8511 55.5732 72.5443 55.5732H71.4928V57.1935ZM77.1873 61H75.7044L77.964 54.4545H79.7473L82.0037 61H80.5208L78.8812 55.9503H78.8301L77.1873 61ZM77.0946 58.4272H80.5975V59.5075H77.0946V58.4272Z" fill="black"/>
<path d="M42.3161 68V64.3636H44.7237V64.9975H43.0849V65.864H44.5639V66.4979H43.0849V68H42.3161ZM48.5825 66.1818C48.5825 66.5784 48.5073 66.9157 48.357 67.1939C48.2078 67.4721 48.0042 67.6845 47.7462 67.8313C47.4893 67.9769 47.2005 68.0497 46.8797 68.0497C46.5566 68.0497 46.2665 67.9763 46.0097 67.8295C45.7528 67.6828 45.5498 67.4703 45.4007 67.1921C45.2515 66.9139 45.1769 66.5772 45.1769 66.1818C45.1769 65.7853 45.2515 65.4479 45.4007 65.1697C45.5498 64.8916 45.7528 64.6797 46.0097 64.5341C46.2665 64.3873 46.5566 64.3139 46.8797 64.3139C47.2005 64.3139 47.4893 64.3873 47.7462 64.5341C48.0042 64.6797 48.2078 64.8916 48.357 65.1697C48.5073 65.4479 48.5825 65.7853 48.5825 66.1818ZM47.803 66.1818C47.803 65.925 47.7645 65.7083 47.6876 65.532C47.6118 65.3556 47.5047 65.2218 47.3662 65.1307C47.2277 65.0395 47.0655 64.994 46.8797 64.994C46.6939 64.994 46.5317 65.0395 46.3932 65.1307C46.2547 65.2218 46.147 65.3556 46.07 65.532C45.9943 65.7083 45.9564 65.925 45.9564 66.1818C45.9564 66.4387 45.9943 66.6553 46.07 66.8317C46.147 67.008 46.2547 67.1418 46.3932 67.233C46.5317 67.3241 46.6939 67.3697 46.8797 67.3697C47.0655 67.3697 47.2277 67.3241 47.3662 67.233C47.5047 67.1418 47.6118 67.008 47.6876 66.8317C47.7645 66.6553 47.803 66.4387 47.803 66.1818ZM49.152 68V64.3636H50.5866C50.8613 64.3636 51.0956 64.4128 51.2898 64.511C51.4851 64.6081 51.6336 64.746 51.7354 64.9247C51.8384 65.1023 51.8899 65.3112 51.8899 65.5515C51.8899 65.793 51.8378 66.0007 51.7337 66.1747C51.6295 66.3475 51.4786 66.4801 51.2809 66.5724C51.0844 66.6648 50.8465 66.7109 50.5671 66.7109H49.6065V66.093H50.4428C50.5896 66.093 50.7115 66.0729 50.8086 66.0327C50.9057 65.9924 50.9779 65.9321 51.0252 65.8516C51.0737 65.7711 51.098 65.671 51.098 65.5515C51.098 65.4308 51.0737 65.329 51.0252 65.2461C50.9779 65.1632 50.9051 65.1005 50.8068 65.0579C50.7098 65.0141 50.5872 64.9922 50.4393 64.9922H49.9208V68H49.152ZM51.1158 66.3452L52.0195 68H51.1708L50.2866 66.3452H51.1158Z" fill="black"/>
<path d="M10.3793 76V71.6364H12.1264C12.4474 71.6364 12.7152 71.6839 12.9297 71.7791C13.1442 71.8743 13.3054 72.0064 13.4134 72.1754C13.5213 72.343 13.5753 72.5362 13.5753 72.755C13.5753 72.9254 13.5412 73.0753 13.473 73.2045C13.4048 73.3324 13.3111 73.4375 13.1918 73.5199C13.0739 73.6009 12.9389 73.6584 12.7869 73.6925V73.7351C12.9531 73.7422 13.1087 73.7891 13.2536 73.8757C13.3999 73.9624 13.5185 74.0838 13.6094 74.2401C13.7003 74.3949 13.7457 74.5795 13.7457 74.794C13.7457 75.0256 13.6882 75.2322 13.5732 75.4141C13.4595 75.5945 13.2912 75.7372 13.0682 75.8423C12.8452 75.9474 12.5703 76 12.2436 76H10.3793ZM11.3018 75.2457H12.054C12.3111 75.2457 12.4986 75.1967 12.6165 75.0987C12.7344 74.9993 12.7933 74.8672 12.7933 74.7024C12.7933 74.5817 12.7642 74.4751 12.706 74.3828C12.6477 74.2905 12.5646 74.218 12.4567 74.1655C12.3501 74.1129 12.223 74.0866 12.0753 74.0866H11.3018V75.2457ZM11.3018 73.4624H11.9858C12.1122 73.4624 12.2244 73.4403 12.3224 73.3963C12.4219 73.3509 12.5 73.2869 12.5568 73.2045C12.6151 73.1222 12.6442 73.0234 12.6442 72.9084C12.6442 72.7507 12.5881 72.6236 12.4759 72.527C12.3651 72.4304 12.2074 72.3821 12.0028 72.3821H11.3018V73.4624ZM14.3461 76V71.6364H16.0676C16.3972 71.6364 16.6784 71.6953 16.9114 71.8132C17.1458 71.9297 17.324 72.0952 17.4462 72.3097C17.5698 72.5227 17.6316 72.7734 17.6316 73.0618C17.6316 73.3516 17.5691 73.6009 17.4441 73.8097C17.3191 74.017 17.138 74.1761 16.9007 74.2869C16.665 74.3977 16.3794 74.4531 16.0442 74.4531H14.8915V73.7116H15.8951C16.0712 73.7116 16.2175 73.6875 16.334 73.6392C16.4505 73.5909 16.5371 73.5185 16.5939 73.4219C16.6522 73.3253 16.6813 73.2053 16.6813 73.0618C16.6813 72.9169 16.6522 72.7947 16.5939 72.6953C16.5371 72.5959 16.4498 72.5206 16.3319 72.4695C16.2154 72.4169 16.0684 72.3906 15.8908 72.3906H15.2686V76H14.3461ZM16.7026 74.0142L17.7871 76H16.7686L15.7076 74.0142H16.7026ZM19.2061 71.6364V76H18.2836V71.6364H19.2061ZM20.7173 76H19.7287L21.2351 71.6364H22.424L23.9283 76H22.9396L21.8466 72.6335H21.8125L20.7173 76ZM20.6555 74.2848H22.9908V75.005H20.6555V74.2848ZM28.1033 71.6364V76H27.3065L25.408 73.2536H25.3761V76H24.4535V71.6364H25.2631L27.1467 74.3807H27.185V71.6364H28.1033ZM30.2543 76V71.6364H32.0014C32.3224 71.6364 32.5902 71.6839 32.8047 71.7791C33.0192 71.8743 33.1804 72.0064 33.2884 72.1754C33.3963 72.343 33.4503 72.5362 33.4503 72.755C33.4503 72.9254 33.4162 73.0753 33.348 73.2045C33.2798 73.3324 33.1861 73.4375 33.0668 73.5199C32.9489 73.6009 32.8139 73.6584 32.6619 73.6925V73.7351C32.8281 73.7422 32.9837 73.7891 33.1286 73.8757C33.2749 73.9624 33.3935 74.0838 33.4844 74.2401C33.5753 74.3949 33.6207 74.5795 33.6207 74.794C33.6207 75.0256 33.5632 75.2322 33.4482 75.4141C33.3345 75.5945 33.1662 75.7372 32.9432 75.8423C32.7202 75.9474 32.4453 76 32.1186 76H30.2543ZM31.1768 75.2457H31.929C32.1861 75.2457 32.3736 75.1967 32.4915 75.0987C32.6094 74.9993 32.6683 74.8672 32.6683 74.7024C32.6683 74.5817 32.6392 74.4751 32.581 74.3828C32.5227 74.2905 32.4396 74.218 32.3317 74.1655C32.2251 74.1129 32.098 74.0866 31.9503 74.0866H31.1768V75.2457ZM31.1768 73.4624H31.8608C31.9872 73.4624 32.0994 73.4403 32.1974 73.3963C32.2969 73.3509 32.375 73.2869 32.4318 73.2045C32.4901 73.1222 32.5192 73.0234 32.5192 72.9084C32.5192 72.7507 32.4631 72.6236 32.3509 72.527C32.2401 72.4304 32.0824 72.3821 31.8778 72.3821H31.1768V73.4624ZM33.9654 71.6364H34.9988L35.9938 73.5156H36.0364L37.0314 71.6364H38.0648L36.4732 74.4574V76H35.557V74.4574L33.9654 71.6364ZM39.9574 76V71.6364H41.7045C42.0256 71.6364 42.2933 71.6839 42.5078 71.7791C42.7223 71.8743 42.8835 72.0064 42.9915 72.1754C43.0994 72.343 43.1534 72.5362 43.1534 72.755C43.1534 72.9254 43.1193 73.0753 43.0511 73.2045C42.983 73.3324 42.8892 73.4375 42.7699 73.5199C42.652 73.6009 42.517 73.6584 42.3651 73.6925V73.7351C42.5313 73.7422 42.6868 73.7891 42.8317 73.8757C42.978 73.9624 43.0966 74.0838 43.1875 74.2401C43.2784 74.3949 43.3239 74.5795 43.3239 74.794C43.3239 75.0256 43.2663 75.2322 43.1513 75.4141C43.0376 75.5945 42.8693 75.7372 42.6463 75.8423C42.4233 75.9474 42.1484 76 41.8217 76H39.9574ZM40.88 75.2457H41.6321C41.8892 75.2457 42.0767 75.1967 42.1946 75.0987C42.3125 74.9993 42.3714 74.8672 42.3714 74.7024C42.3714 74.5817 42.3423 74.4751 42.2841 74.3828C42.2259 74.2905 42.1428 74.218 42.0348 74.1655C41.9283 74.1129 41.8011 74.0866 41.6534 74.0866H40.88V75.2457ZM40.88 73.4624H41.5639C41.6903 73.4624 41.8026 73.4403 41.9006 73.3963C42 73.3509 42.0781 73.2869 42.1349 73.2045C42.1932 73.1222 42.2223 73.0234 42.2223 72.9084C42.2223 72.7507 42.1662 72.6236 42.054 72.527C41.9432 72.4304 41.7855 72.3821 41.581 72.3821H40.88V73.4624ZM43.9242 76V71.6364H45.6458C45.9753 71.6364 46.2566 71.6953 46.4895 71.8132C46.7239 71.9297 46.9022 72.0952 47.0243 72.3097C47.1479 72.5227 47.2097 72.7734 47.2097 73.0618C47.2097 73.3516 47.1472 73.6009 47.0222 73.8097C46.8972 74.017 46.7161 74.1761 46.4789 74.2869C46.2431 74.3977 45.9576 74.4531 45.6223 74.4531H44.4696V73.7116H45.4732C45.6493 73.7116 45.7956 73.6875 45.9121 73.6392C46.0286 73.5909 46.1152 73.5185 46.1721 73.4219C46.2303 73.3253 46.2594 73.2053 46.2594 73.0618C46.2594 72.9169 46.2303 72.7947 46.1721 72.6953C46.1152 72.5959 46.0279 72.5206 45.91 72.4695C45.7935 72.4169 45.6465 72.3906 45.4689 72.3906H44.8468V76H43.9242ZM46.2807 74.0142L47.3652 76H46.3468L45.2857 74.0142H46.2807ZM48.7843 71.6364V76H47.8617V71.6364H48.7843ZM50.2955 76H49.3068L50.8132 71.6364H52.0021L53.5064 76H52.5178L51.4247 72.6335H51.3906L50.2955 76ZM50.2337 74.2848H52.5689V75.005H50.2337V74.2848ZM57.6815 71.6364V76H56.8846L54.9862 73.2536H54.9542V76H54.0316V71.6364H54.8413L56.7248 74.3807H56.7631V71.6364H57.6815ZM60.8146 76L59.5661 71.6364H60.5739L61.2962 74.6683H61.3324L62.1293 71.6364H62.9922L63.7869 74.6747H63.8253L64.5476 71.6364H65.5554L64.3068 76H63.4077L62.5767 73.147H62.5426L61.7138 76H60.8146ZM66.0492 76V71.6364H68.9895V72.397H66.9718V73.4368H68.8382V74.1974H66.9718V75.2393H68.998V76H66.0492ZM69.723 76V71.6364H70.6456V75.2393H72.5163V76H69.723ZM76.9673 73.8182C76.9673 74.294 76.8771 74.6989 76.6967 75.0327C76.5178 75.3665 76.2734 75.6214 75.9638 75.7976C75.6555 75.9723 75.3089 76.0597 74.924 76.0597C74.5362 76.0597 74.1882 75.9716 73.88 75.7955C73.5717 75.6193 73.3281 75.3643 73.1491 75.0305C72.9702 74.6967 72.8807 74.2926 72.8807 73.8182C72.8807 73.3423 72.9702 72.9375 73.1491 72.6037C73.3281 72.2699 73.5717 72.0156 73.88 71.8409C74.1882 71.6648 74.5362 71.5767 74.924 71.5767C75.3089 71.5767 75.6555 71.6648 75.9638 71.8409C76.2734 72.0156 76.5178 72.2699 76.6967 72.6037C76.8771 72.9375 76.9673 73.3423 76.9673 73.8182ZM76.032 73.8182C76.032 73.5099 75.9858 73.25 75.8935 73.0384C75.8026 72.8267 75.674 72.6662 75.5078 72.5568C75.3416 72.4474 75.147 72.3928 74.924 72.3928C74.701 72.3928 74.5064 72.4474 74.3402 72.5568C74.174 72.6662 74.0447 72.8267 73.9524 73.0384C73.8615 73.25 73.8161 73.5099 73.8161 73.8182C73.8161 74.1264 73.8615 74.3864 73.9524 74.598C74.0447 74.8097 74.174 74.9702 74.3402 75.0795C74.5064 75.1889 74.701 75.2436 74.924 75.2436C75.147 75.2436 75.3416 75.1889 75.5078 75.0795C75.674 74.9702 75.8026 74.8097 75.8935 74.598C75.9858 74.3864 76.032 74.1264 76.032 73.8182ZM77.6507 76V71.6364H79.3979C79.7189 71.6364 79.9867 71.6839 80.2012 71.7791C80.4157 71.8743 80.5769 72.0064 80.6848 72.1754C80.7928 72.343 80.8468 72.5362 80.8468 72.755C80.8468 72.9254 80.8127 73.0753 80.7445 73.2045C80.6763 73.3324 80.5826 73.4375 80.4632 73.5199C80.3453 73.6009 80.2104 73.6584 80.0584 73.6925V73.7351C80.2246 73.7422 80.3801 73.7891 80.525 73.8757C80.6713 73.9624 80.79 74.0838 80.8809 74.2401C80.9718 74.3949 81.0172 74.5795 81.0172 74.794C81.0172 75.0256 80.9597 75.2322 80.8446 75.4141C80.731 75.5945 80.5627 75.7372 80.3397 75.8423C80.1167 75.9474 79.8418 76 79.5151 76H77.6507ZM78.5733 75.2457H79.3255C79.5826 75.2457 79.7701 75.1967 79.888 75.0987C80.0059 74.9993 80.0648 74.8672 80.0648 74.7024C80.0648 74.5817 80.0357 74.4751 79.9775 74.3828C79.9192 74.2905 79.8361 74.218 79.7282 74.1655C79.6216 74.1129 79.4945 74.0866 79.3468 74.0866H78.5733V75.2457ZM78.5733 73.4624H79.2573C79.3837 73.4624 79.4959 73.4403 79.5939 73.3963C79.6934 73.3509 79.7715 73.2869 79.8283 73.2045C79.8865 73.1222 79.9157 73.0234 79.9157 72.9084C79.9157 72.7507 79.8596 72.6236 79.7473 72.527C79.6365 72.4304 79.4789 72.3821 79.2743 72.3821H78.5733V73.4624ZM82.3697 76H81.381L82.8874 71.6364H84.0763L85.5806 76H84.592L83.4989 72.6335H83.4648L82.3697 76ZM82.3079 74.2848H84.6431V75.005H82.3079V74.2848Z" fill="black"/>
<path d="M22.8679 79.0909V82H22.2528V79.0909H22.8679ZM25.8072 79.0909V82H25.2759L24.0103 80.169H23.989V82H23.3739V79.0909H23.9137L25.1694 80.9205H25.195V79.0909H25.8072ZM29.8079 80.1094H29.1857C29.1744 80.0289 29.1512 79.9574 29.1161 79.8949C29.0811 79.8314 29.0361 79.7775 28.9812 79.733C28.9263 79.6884 28.8628 79.6544 28.7908 79.6307C28.7198 79.607 28.6426 79.5952 28.5593 79.5952C28.4087 79.5952 28.2776 79.6326 28.1658 79.7074C28.0541 79.7812 27.9674 79.8892 27.9059 80.0312C27.8443 80.1723 27.8136 80.3437 27.8136 80.5455C27.8136 80.7528 27.8443 80.9271 27.9059 81.0682C27.9684 81.2093 28.0555 81.3158 28.1673 81.3878C28.279 81.4598 28.4083 81.4957 28.555 81.4957C28.6374 81.4957 28.7137 81.4848 28.7837 81.4631C28.8548 81.4413 28.9177 81.4096 28.9727 81.3679C29.0276 81.3253 29.073 81.2737 29.109 81.2131C29.146 81.1525 29.1715 81.0833 29.1857 81.0057L29.8079 81.0085C29.7918 81.142 29.7515 81.2708 29.6871 81.3949C29.6237 81.518 29.538 81.6283 29.43 81.7259C29.323 81.8224 29.1952 81.8991 29.0465 81.956C28.8988 82.0118 28.7317 82.0398 28.5451 82.0398C28.2856 82.0398 28.0536 81.9811 27.8491 81.8636C27.6455 81.7462 27.4845 81.5762 27.3661 81.3537C27.2487 81.1312 27.19 80.8617 27.19 80.5455C27.19 80.2282 27.2496 79.9583 27.369 79.7358C27.4883 79.5133 27.6502 79.3437 27.8548 79.2273C28.0593 79.1098 28.2894 79.0511 28.5451 79.0511C28.7137 79.0511 28.8699 79.0748 29.0138 79.1222C29.1587 79.1695 29.2871 79.2386 29.3988 79.3295C29.5105 79.4195 29.6014 79.5298 29.6715 79.6605C29.7425 79.7912 29.788 79.9408 29.8079 80.1094ZM32.9222 80.5455C32.9222 80.8627 32.8621 81.1326 32.7418 81.3551C32.6225 81.5777 32.4596 81.7476 32.2532 81.8651C32.0477 81.9815 31.8166 82.0398 31.56 82.0398C31.3015 82.0398 31.0695 81.9811 30.864 81.8636C30.6585 81.7462 30.4961 81.5762 30.3768 81.3537C30.2575 81.1312 30.1978 80.8617 30.1978 80.5455C30.1978 80.2282 30.2575 79.9583 30.3768 79.7358C30.4961 79.5133 30.6585 79.3437 30.864 79.2273C31.0695 79.1098 31.3015 79.0511 31.56 79.0511C31.8166 79.0511 32.0477 79.1098 32.2532 79.2273C32.4596 79.3437 32.6225 79.5133 32.7418 79.7358C32.8621 79.9583 32.9222 80.2282 32.9222 80.5455ZM32.2987 80.5455C32.2987 80.34 32.2679 80.1667 32.2063 80.0256C32.1457 79.8845 32.06 79.7775 31.9492 79.7045C31.8384 79.6316 31.7087 79.5952 31.56 79.5952C31.4113 79.5952 31.2816 79.6316 31.1708 79.7045C31.06 79.7775 30.9738 79.8845 30.9123 80.0256C30.8517 80.1667 30.8214 80.34 30.8214 80.5455C30.8214 80.7509 30.8517 80.9242 30.9123 81.0653C30.9738 81.2064 31.06 81.3134 31.1708 81.3864C31.2816 81.4593 31.4113 81.4957 31.56 81.4957C31.7087 81.4957 31.8384 81.4593 31.9492 81.3864C32.06 81.3134 32.1457 81.2064 32.2063 81.0653C32.2679 80.9242 32.2987 80.7509 32.2987 80.5455ZM33.3778 82V79.0909H33.9929V81.4929H35.2401V82H33.3778ZM35.6474 82V79.0909H36.2624V81.4929H37.5096V82H35.6474ZM38.4925 82H37.8335L38.8377 79.0909H39.6303L40.6332 82H39.9741L39.2454 79.7557H39.2227L38.4925 82ZM38.4513 80.8565H40.0082V81.3366H38.4513V80.8565ZM40.9833 82V79.0909H42.1481C42.3621 79.0909 42.5406 79.1226 42.6836 79.1861C42.8266 79.2495 42.9341 79.3376 43.006 79.4503C43.078 79.562 43.114 79.6908 43.114 79.8366C43.114 79.9503 43.0913 80.0502 43.0458 80.1364C43.0004 80.2216 42.9379 80.2917 42.8583 80.3466C42.7797 80.4006 42.6897 80.4389 42.5884 80.4616V80.4901C42.6992 80.4948 42.8029 80.526 42.8995 80.5838C42.997 80.6416 43.0761 80.7225 43.1367 80.8267C43.1973 80.9299 43.2276 81.053 43.2276 81.196C43.2276 81.3504 43.1893 81.4882 43.1126 81.6094C43.0368 81.7296 42.9246 81.8248 42.7759 81.8949C42.6272 81.965 42.444 82 42.2262 82H40.9833ZM41.5984 81.4972H42.0998C42.2712 81.4972 42.3962 81.4645 42.4748 81.3991C42.5534 81.3329 42.5927 81.2448 42.5927 81.1349C42.5927 81.0545 42.5733 80.9834 42.5344 80.9219C42.4956 80.8603 42.4402 80.812 42.3683 80.777C42.2972 80.742 42.2125 80.7244 42.114 80.7244H41.5984V81.4972ZM41.5984 80.3082H42.0543C42.1386 80.3082 42.2134 80.2936 42.2788 80.2642C42.3451 80.2339 42.3971 80.1913 42.435 80.1364C42.4738 80.0814 42.4933 80.0156 42.4933 79.9389C42.4933 79.8338 42.4558 79.7491 42.381 79.6847C42.3072 79.6203 42.2021 79.5881 42.0657 79.5881H41.5984V80.3082ZM46.3011 80.5455C46.3011 80.8627 46.241 81.1326 46.1207 81.3551C46.0014 81.5777 45.8385 81.7476 45.6321 81.8651C45.4266 81.9815 45.1955 82.0398 44.9389 82.0398C44.6804 82.0398 44.4484 81.9811 44.2429 81.8636C44.0374 81.7462 43.875 81.5762 43.7557 81.3537C43.6364 81.1312 43.5767 80.8617 43.5767 80.5455C43.5767 80.2282 43.6364 79.9583 43.7557 79.7358C43.875 79.5133 44.0374 79.3437 44.2429 79.2273C44.4484 79.1098 44.6804 79.0511 44.9389 79.0511C45.1955 79.0511 45.4266 79.1098 45.6321 79.2273C45.8385 79.3437 46.0014 79.5133 46.1207 79.7358C46.241 79.9583 46.3011 80.2282 46.3011 80.5455ZM45.6776 80.5455C45.6776 80.34 45.6468 80.1667 45.5852 80.0256C45.5246 79.8845 45.4389 79.7775 45.3281 79.7045C45.2173 79.6316 45.0876 79.5952 44.9389 79.5952C44.7902 79.5952 44.6605 79.6316 44.5497 79.7045C44.4389 79.7775 44.3527 79.8845 44.2912 80.0256C44.2306 80.1667 44.2003 80.34 44.2003 80.5455C44.2003 80.7509 44.2306 80.9242 44.2912 81.0653C44.3527 81.2064 44.4389 81.3134 44.5497 81.3864C44.6605 81.4593 44.7902 81.4957 44.9389 81.4957C45.0876 81.4957 45.2173 81.4593 45.3281 81.3864C45.4389 81.3134 45.5246 81.2064 45.5852 81.0653C45.6468 80.9242 45.6776 80.7509 45.6776 80.5455ZM46.7567 82V79.0909H47.9045C48.1242 79.0909 48.3117 79.1302 48.467 79.2088C48.6232 79.2865 48.7421 79.3968 48.8235 79.5398C48.9059 79.6818 48.9471 79.849 48.9471 80.0412C48.9471 80.2344 48.9054 80.4006 48.8221 80.5398C48.7388 80.678 48.618 80.7841 48.4599 80.858C48.3027 80.9318 48.1123 80.9688 47.8888 80.9688H47.1204V80.4744H47.7894C47.9068 80.4744 48.0044 80.4583 48.082 80.4261C48.1597 80.3939 48.2174 80.3456 48.2553 80.2812C48.2942 80.2169 48.3136 80.1368 48.3136 80.0412C48.3136 79.9446 48.2942 79.8632 48.2553 79.7969C48.2174 79.7306 48.1592 79.6804 48.0806 79.6463C48.003 79.6113 47.9049 79.5938 47.7866 79.5938H47.3718V82H46.7567ZM48.3278 80.6761L49.0508 82H48.3718L47.6644 80.6761H48.3278ZM49.8832 82H49.2241L50.2283 79.0909H51.021L52.0238 82H51.3647L50.636 79.7557H50.6133L49.8832 82ZM49.842 80.8565H51.3988V81.3366H49.842V80.8565ZM51.9077 79.598V79.0909H54.2969V79.598H53.4062V82H52.7983V79.598H51.9077ZM55.3054 79.0909V82H54.6903V79.0909H55.3054ZM58.4847 80.5455C58.4847 80.8627 58.4246 81.1326 58.3043 81.3551C58.185 81.5777 58.0221 81.7476 57.8157 81.8651C57.6102 81.9815 57.3791 82.0398 57.1225 82.0398C56.864 82.0398 56.632 81.9811 56.4265 81.8636C56.221 81.7462 56.0586 81.5762 55.9393 81.3537C55.82 81.1312 55.7603 80.8617 55.7603 80.5455C55.7603 80.2282 55.82 79.9583 55.9393 79.7358C56.0586 79.5133 56.221 79.3437 56.4265 79.2273C56.632 79.1098 56.864 79.0511 57.1225 79.0511C57.3791 79.0511 57.6102 79.1098 57.8157 79.2273C58.0221 79.3437 58.185 79.5133 58.3043 79.7358C58.4246 79.9583 58.4847 80.2282 58.4847 80.5455ZM57.8612 80.5455C57.8612 80.34 57.8304 80.1667 57.7688 80.0256C57.7082 79.8845 57.6225 79.7775 57.5117 79.7045C57.4009 79.6316 57.2712 79.5952 57.1225 79.5952C56.9738 79.5952 56.8441 79.6316 56.7333 79.7045C56.6225 79.7775 56.5363 79.8845 56.4748 80.0256C56.4142 80.1667 56.3839 80.34 56.3839 80.5455C56.3839 80.7509 56.4142 80.9242 56.4748 81.0653C56.5363 81.2064 56.6225 81.3134 56.7333 81.3864C56.8441 81.4593 56.9738 81.4957 57.1225 81.4957C57.2712 81.4957 57.4009 81.4593 57.5117 81.3864C57.6225 81.3134 57.7082 81.2064 57.7688 81.0653C57.8304 80.9242 57.8612 80.7509 57.8612 80.5455ZM61.3736 79.0909V82H60.8423L59.5767 80.169H59.5554V82H58.9403V79.0909H59.4801L60.7358 80.9205H60.7614V79.0909H61.3736ZM63.4624 82L62.63 79.0909H63.3018L63.7834 81.1122H63.8075L64.3388 79.0909H64.9141L65.4439 81.1165H65.4695L65.951 79.0909H66.6229L65.7905 82H65.1911L64.6371 80.098H64.6143L64.0618 82H63.4624ZM67.5671 79.0909V82H66.9521V79.0909H67.5671ZM67.9624 79.598V79.0909H70.3516V79.598H69.4609V82H68.853V79.598H67.9624ZM70.745 82V79.0909H71.3601V80.2912H72.6087V79.0909H73.2223V82H72.6087V80.7983H71.3601V82H70.745Z" fill="black"/>
<path d="M2.25284 88V85.0909H3.41761C3.63163 85.0909 3.81013 85.1226 3.95312 85.1861C4.09612 85.2495 4.2036 85.3376 4.27557 85.4503C4.34754 85.562 4.38352 85.6908 4.38352 85.8366C4.38352 85.9503 4.3608 86.0502 4.31534 86.1364C4.26989 86.2216 4.20739 86.2917 4.12784 86.3466C4.04924 86.4006 3.95928 86.4389 3.85795 86.4616V86.4901C3.96875 86.4948 4.07244 86.526 4.16903 86.5838C4.26657 86.6416 4.34564 86.7225 4.40625 86.8267C4.46686 86.9299 4.49716 87.053 4.49716 87.196C4.49716 87.3504 4.45881 87.4882 4.3821 87.6094C4.30634 87.7296 4.19413 87.8248 4.04545 87.8949C3.89678 87.965 3.71354 88 3.49574 88H2.25284ZM2.8679 87.4972H3.36932C3.54072 87.4972 3.66572 87.4645 3.74432 87.3991C3.82292 87.3329 3.86222 87.2448 3.86222 87.1349C3.86222 87.0545 3.8428 86.9834 3.80398 86.9219C3.76515 86.8603 3.70975 86.812 3.63778 86.777C3.56676 86.742 3.48201 86.7244 3.38352 86.7244H2.8679V87.4972ZM2.8679 86.3082H3.32386C3.40814 86.3082 3.48295 86.2936 3.5483 86.2642C3.61458 86.2339 3.66667 86.1913 3.70455 86.1364C3.74337 86.0814 3.76278 86.0156 3.76278 85.9389C3.76278 85.8338 3.72538 85.7491 3.65057 85.6847C3.5767 85.6203 3.47159 85.5881 3.33523 85.5881H2.8679V86.3082ZM4.89737 88V85.0909H6.0451C6.2648 85.0909 6.4523 85.1302 6.6076 85.2088C6.76385 85.2865 6.88269 85.3968 6.96413 85.5398C7.04652 85.6818 7.08771 85.849 7.08771 86.0412C7.08771 86.2344 7.04605 86.4006 6.96271 86.5398C6.87938 86.678 6.75864 86.7841 6.6005 86.858C6.4433 86.9318 6.25296 86.9688 6.02947 86.9688H5.26101V86.4744H5.93004C6.04747 86.4744 6.145 86.4583 6.22266 86.4261C6.30031 86.3939 6.35807 86.3456 6.39595 86.2812C6.43478 86.2169 6.45419 86.1368 6.45419 86.0412C6.45419 85.9446 6.43478 85.8632 6.39595 85.7969C6.35807 85.7306 6.29983 85.6804 6.22124 85.6463C6.14358 85.6113 6.04557 85.5938 5.9272 85.5938H5.51243V88H4.89737ZM6.46839 86.6761L7.19141 88H6.51243L5.80504 86.6761H6.46839ZM8.13743 85.0909V88H7.52237V85.0909H8.13743ZM9.14489 88H8.4858L9.49006 85.0909H10.2827L11.2855 88H10.6264L9.89773 85.7557H9.875L9.14489 88ZM9.10369 86.8565H10.6605V87.3366H9.10369V86.8565ZM14.0689 85.0909V88H13.5376L12.272 86.169H12.2507V88H11.6357V85.0909H12.1754L13.4311 86.9205H13.4567V85.0909H14.0689ZM16.1577 88L15.3253 85.0909H15.9972L16.4787 87.1122H16.5028L17.0341 85.0909H17.6094L18.1392 87.1165H18.1648L18.6463 85.0909H19.3182L18.4858 88H17.8864L17.3324 86.098H17.3097L16.7571 88H16.1577ZM19.6474 88V85.0909H21.6076V85.598H20.2624V86.2912H21.5067V86.7983H20.2624V87.4929H21.6133V88H19.6474ZM22.0966 88V85.0909H22.7116V87.4929H23.9588V88H22.0966ZM26.9261 86.5455C26.9261 86.8627 26.866 87.1326 26.7457 87.3551C26.6264 87.5777 26.4635 87.7476 26.2571 87.8651C26.0516 87.9815 25.8205 88.0398 25.5639 88.0398C25.3054 88.0398 25.0734 87.9811 24.8679 87.8636C24.6624 87.7462 24.5 87.5762 24.3807 87.3537C24.2614 87.1312 24.2017 86.8617 24.2017 86.5455C24.2017 86.2282 24.2614 85.9583 24.3807 85.7358C24.5 85.5133 24.6624 85.3437 24.8679 85.2273C25.0734 85.1098 25.3054 85.0511 25.5639 85.0511C25.8205 85.0511 26.0516 85.1098 26.2571 85.2273C26.4635 85.3437 26.6264 85.5133 26.7457 85.7358C26.866 85.9583 26.9261 86.2282 26.9261 86.5455ZM26.3026 86.5455C26.3026 86.34 26.2718 86.1667 26.2102 86.0256C26.1496 85.8845 26.0639 85.7775 25.9531 85.7045C25.8423 85.6316 25.7126 85.5952 25.5639 85.5952C25.4152 85.5952 25.2855 85.6316 25.1747 85.7045C25.0639 85.7775 24.9777 85.8845 24.9162 86.0256C24.8556 86.1667 24.8253 86.34 24.8253 86.5455C24.8253 86.7509 24.8556 86.9242 24.9162 87.0653C24.9777 87.2064 25.0639 87.3134 25.1747 87.3864C25.2855 87.4593 25.4152 87.4957 25.5639 87.4957C25.7126 87.4957 25.8423 87.4593 25.9531 87.3864C26.0639 87.3134 26.1496 87.2064 26.2102 87.0653C26.2718 86.9242 26.3026 86.7509 26.3026 86.5455ZM27.3817 88V85.0909H28.5465C28.7605 85.0909 28.939 85.1226 29.082 85.1861C29.225 85.2495 29.3325 85.3376 29.4045 85.4503C29.4764 85.562 29.5124 85.6908 29.5124 85.8366C29.5124 85.9503 29.4897 86.0502 29.4442 86.1364C29.3988 86.2216 29.3363 86.2917 29.2567 86.3466C29.1781 86.4006 29.0882 86.4389 28.9869 86.4616V86.4901C29.0977 86.4948 29.2013 86.526 29.2979 86.5838C29.3955 86.6416 29.4746 86.7225 29.5352 86.8267C29.5958 86.9299 29.6261 87.053 29.6261 87.196C29.6261 87.3504 29.5877 87.4882 29.511 87.6094C29.4353 87.7296 29.323 87.8248 29.1744 87.8949C29.0257 87.965 28.8424 88 28.6246 88H27.3817ZM27.9968 87.4972H28.4982C28.6696 87.4972 28.7946 87.4645 28.8732 87.3991C28.9518 87.3329 28.9911 87.2448 28.9911 87.1349C28.9911 87.0545 28.9717 86.9834 28.9329 86.9219C28.8941 86.8603 28.8387 86.812 28.7667 86.777C28.6957 86.742 28.6109 86.7244 28.5124 86.7244H27.9968V87.4972ZM27.9968 86.3082H28.4528C28.5371 86.3082 28.6119 86.2936 28.6772 86.2642C28.7435 86.2339 28.7956 86.1913 28.8335 86.1364C28.8723 86.0814 28.8917 86.0156 28.8917 85.9389C28.8917 85.8338 28.8543 85.7491 28.7795 85.6847C28.7056 85.6203 28.6005 85.5881 28.4641 85.5881H27.9968V86.3082ZM30.5277 88H29.8686L30.8729 85.0909H31.6655L32.6683 88H32.0092L31.2805 85.7557H31.2578L30.5277 88ZM30.4865 86.8565H32.0433V87.3366H30.4865V86.8565ZM33.9442 88V85.0909H35.8704V85.598H34.5593V86.2912H35.7425V86.7983H34.5593V88H33.9442ZM38.9574 86.5455C38.9574 86.8627 38.8973 87.1326 38.777 87.3551C38.6577 87.5777 38.4948 87.7476 38.2884 87.8651C38.0829 87.9815 37.8518 88.0398 37.5952 88.0398C37.3366 88.0398 37.1046 87.9811 36.8991 87.8636C36.6937 87.7462 36.5313 87.5762 36.4119 87.3537C36.2926 87.1312 36.233 86.8617 36.233 86.5455C36.233 86.2282 36.2926 85.9583 36.4119 85.7358C36.5313 85.5133 36.6937 85.3437 36.8991 85.2273C37.1046 85.1098 37.3366 85.0511 37.5952 85.0511C37.8518 85.0511 38.0829 85.1098 38.2884 85.2273C38.4948 85.3437 38.6577 85.5133 38.777 85.7358C38.8973 85.9583 38.9574 86.2282 38.9574 86.5455ZM38.3338 86.5455C38.3338 86.34 38.303 86.1667 38.2415 86.0256C38.1809 85.8845 38.0952 85.7775 37.9844 85.7045C37.8736 85.6316 37.7438 85.5952 37.5952 85.5952C37.4465 85.5952 37.3168 85.6316 37.206 85.7045C37.0952 85.7775 37.009 85.8845 36.9474 86.0256C36.8868 86.1667 36.8565 86.34 36.8565 86.5455C36.8565 86.7509 36.8868 86.9242 36.9474 87.0653C37.009 87.2064 37.0952 87.3134 37.206 87.3864C37.3168 87.4593 37.4465 87.4957 37.5952 87.4957C37.7438 87.4957 37.8736 87.4593 37.9844 87.3864C38.0952 87.3134 38.1809 87.2064 38.2415 87.0653C38.303 86.9242 38.3338 86.7509 38.3338 86.5455ZM39.413 88V85.0909H40.5607C40.7804 85.0909 40.9679 85.1302 41.1232 85.2088C41.2795 85.2865 41.3983 85.3968 41.4798 85.5398C41.5621 85.6818 41.6033 85.849 41.6033 86.0412C41.6033 86.2344 41.5617 86.4006 41.4783 86.5398C41.395 86.678 41.2743 86.7841 41.1161 86.858C40.9589 86.9318 40.7686 86.9688 40.5451 86.9688H39.7766V86.4744H40.4457C40.5631 86.4744 40.6606 86.4583 40.7383 86.4261C40.8159 86.3939 40.8737 86.3456 40.9116 86.2812C40.9504 86.2169 40.9698 86.1368 40.9698 86.0412C40.9698 85.9446 40.9504 85.8632 40.9116 85.7969C40.8737 85.7306 40.8155 85.6804 40.7369 85.6463C40.6592 85.6113 40.5612 85.5938 40.4428 85.5938H40.0281V88H39.413ZM40.984 86.6761L41.707 88H41.0281L40.3207 86.6761H40.984ZM42.9638 88V85.0909H44.1286C44.3426 85.0909 44.5211 85.1226 44.6641 85.1861C44.8071 85.2495 44.9145 85.3376 44.9865 85.4503C45.0585 85.562 45.0945 85.6908 45.0945 85.8366C45.0945 85.9503 45.0717 86.0502 45.0263 86.1364C44.9808 86.2216 44.9183 86.2917 44.8388 86.3466C44.7602 86.4006 44.6702 86.4389 44.5689 86.4616V86.4901C44.6797 86.4948 44.7834 86.526 44.88 86.5838C44.9775 86.6416 45.0566 86.7225 45.1172 86.8267C45.1778 86.9299 45.2081 87.053 45.2081 87.196C45.2081 87.3504 45.1697 87.4882 45.093 87.6094C45.0173 87.7296 44.9051 87.8248 44.7564 87.8949C44.6077 87.965 44.4245 88 44.2067 88H42.9638ZM43.5788 87.4972H44.0803C44.2517 87.4972 44.3767 87.4645 44.4553 87.3991C44.5339 87.3329 44.5732 87.2448 44.5732 87.1349C44.5732 87.0545 44.5537 86.9834 44.5149 86.9219C44.4761 86.8603 44.4207 86.812 44.3487 86.777C44.2777 86.742 44.1929 86.7244 44.0945 86.7244H43.5788V87.4972ZM43.5788 86.3082H44.0348C44.1191 86.3082 44.1939 86.2936 44.2592 86.2642C44.3255 86.2339 44.3776 86.1913 44.4155 86.1364C44.4543 86.0814 44.4737 86.0156 44.4737 85.9389C44.4737 85.8338 44.4363 85.7491 44.3615 85.6847C44.2876 85.6203 44.1825 85.5881 44.0462 85.5881H43.5788V86.3082ZM45.6083 88V85.0909H46.756C46.9757 85.0909 47.1632 85.1302 47.3185 85.2088C47.4748 85.2865 47.5936 85.3968 47.6751 85.5398C47.7575 85.6818 47.7987 85.849 47.7987 86.0412C47.7987 86.2344 47.757 86.4006 47.6737 86.5398C47.5903 86.678 47.4696 86.7841 47.3114 86.858C47.1542 86.9318 46.9639 86.9688 46.7404 86.9688H45.9719V86.4744H46.641C46.7584 86.4744 46.8559 86.4583 46.9336 86.4261C47.0112 86.3939 47.069 86.3456 47.1069 86.2812C47.1457 86.2169 47.1651 86.1368 47.1651 86.0412C47.1651 85.9446 47.1457 85.8632 47.1069 85.7969C47.069 85.7306 47.0108 85.6804 46.9322 85.6463C46.8545 85.6113 46.7565 85.5938 46.6381 85.5938H46.2234V88H45.6083ZM47.1793 86.6761L47.9023 88H47.2234L46.516 86.6761H47.1793ZM48.8484 85.0909V88H48.2333V85.0909H48.8484ZM49.8558 88H49.1967L50.201 85.0909H50.9936L51.9964 88H51.3374L50.6087 85.7557H50.5859L49.8558 88ZM49.8146 86.8565H51.3714V87.3366H49.8146V86.8565ZM54.7798 85.0909V88H54.2486L52.983 86.169H52.9616V88H52.3466V85.0909H52.8864L54.142 86.9205H54.1676V85.0909H54.7798ZM56.2138 88V85.0909H57.3786C57.5926 85.0909 57.7711 85.1226 57.9141 85.1861C58.0571 85.2495 58.1645 85.3376 58.2365 85.4503C58.3085 85.562 58.3445 85.6908 58.3445 85.8366C58.3445 85.9503 58.3217 86.0502 58.2763 86.1364C58.2308 86.2216 58.1683 86.2917 58.0888 86.3466C58.0102 86.4006 57.9202 86.4389 57.8189 86.4616V86.4901C57.9297 86.4948 58.0334 86.526 58.13 86.5838C58.2275 86.6416 58.3066 86.7225 58.3672 86.8267C58.4278 86.9299 58.4581 87.053 58.4581 87.196C58.4581 87.3504 58.4197 87.4882 58.343 87.6094C58.2673 87.7296 58.1551 87.8248 58.0064 87.8949C57.8577 87.965 57.6745 88 57.4567 88H56.2138ZM56.8288 87.4972H57.3303C57.5017 87.4972 57.6267 87.4645 57.7053 87.3991C57.7839 87.3329 57.8232 87.2448 57.8232 87.1349C57.8232 87.0545 57.8037 86.9834 57.7649 86.9219C57.7261 86.8603 57.6707 86.812 57.5987 86.777C57.5277 86.742 57.4429 86.7244 57.3445 86.7244H56.8288V87.4972ZM56.8288 86.3082H57.2848C57.3691 86.3082 57.4439 86.2936 57.5092 86.2642C57.5755 86.2339 57.6276 86.1913 57.6655 86.1364C57.7043 86.0814 57.7237 86.0156 57.7237 85.9389C57.7237 85.8338 57.6863 85.7491 57.6115 85.6847C57.5376 85.6203 57.4325 85.5881 57.2962 85.5881H56.8288V86.3082ZM58.6879 85.0909H59.3768L60.0401 86.3438H60.0685L60.7319 85.0909H61.4208L60.3597 86.9716V88H59.7489V86.9716L58.6879 85.0909ZM62.6825 88V85.0909H63.8473C64.0613 85.0909 64.2398 85.1226 64.3828 85.1861C64.5258 85.2495 64.6333 85.3376 64.7053 85.4503C64.7772 85.562 64.8132 85.6908 64.8132 85.8366C64.8132 85.9503 64.7905 86.0502 64.745 86.1364C64.6996 86.2216 64.6371 86.2917 64.5575 86.3466C64.4789 86.4006 64.389 86.4389 64.2876 86.4616V86.4901C64.3984 86.4948 64.5021 86.526 64.5987 86.5838C64.6963 86.6416 64.7753 86.7225 64.8359 86.8267C64.8965 86.9299 64.9268 87.053 64.9268 87.196C64.9268 87.3504 64.8885 87.4882 64.8118 87.6094C64.736 87.7296 64.6238 87.8248 64.4751 87.8949C64.3265 87.965 64.1432 88 63.9254 88H62.6825ZM63.2976 87.4972H63.799C63.9704 87.4972 64.0954 87.4645 64.174 87.3991C64.2526 87.3329 64.2919 87.2448 64.2919 87.1349C64.2919 87.0545 64.2725 86.9834 64.2337 86.9219C64.1948 86.8603 64.1394 86.812 64.0675 86.777C63.9964 86.742 63.9117 86.7244 63.8132 86.7244H63.2976V87.4972ZM63.2976 86.3082H63.7536C63.8378 86.3082 63.9126 86.2936 63.978 86.2642C64.0443 86.2339 64.0964 86.1913 64.1342 86.1364C64.1731 86.0814 64.1925 86.0156 64.1925 85.9389C64.1925 85.8338 64.1551 85.7491 64.0803 85.6847C64.0064 85.6203 63.9013 85.5881 63.7649 85.5881H63.2976V86.3082ZM65.3271 88V85.0909H66.4748C66.6945 85.0909 66.882 85.1302 67.0373 85.2088C67.1935 85.2865 67.3124 85.3968 67.3938 85.5398C67.4762 85.6818 67.5174 85.849 67.5174 86.0412C67.5174 86.2344 67.4757 86.4006 67.3924 86.5398C67.3091 86.678 67.1883 86.7841 67.0302 86.858C66.873 86.9318 66.6826 86.9688 66.4592 86.9688H65.6907V86.4744H66.3597C66.4772 86.4744 66.5747 86.4583 66.6523 86.4261C66.73 86.3939 66.7878 86.3456 66.8256 86.2812C66.8645 86.2169 66.8839 86.1368 66.8839 86.0412C66.8839 85.9446 66.8645 85.8632 66.8256 85.7969C66.7878 85.7306 66.7295 85.6804 66.6509 85.6463C66.5733 85.6113 66.4753 85.5938 66.3569 85.5938H65.9421V88H65.3271ZM66.8981 86.6761L67.6211 88H66.9421L66.2347 86.6761H66.8981ZM68.5671 85.0909V88H67.9521V85.0909H68.5671ZM69.5746 88H68.9155L69.9197 85.0909H70.7124L71.7152 88H71.0561L70.3274 85.7557H70.3047L69.5746 88ZM69.5334 86.8565H71.0902V87.3366H69.5334V86.8565ZM74.4986 85.0909V88H73.9673L72.7017 86.169H72.6804V88H72.0653V85.0909H72.6051L73.8608 86.9205H73.8864V85.0909H74.4986ZM76.5874 88L75.755 85.0909H76.4268L76.9084 87.1122H76.9325L77.4638 85.0909H78.0391L78.5689 87.1165H78.5945L79.076 85.0909H79.7479L78.9155 88H78.3161L77.7621 86.098H77.7393L77.1868 88H76.5874ZM80.0771 88V85.0909H82.0373V85.598H80.6921V86.2912H81.9364V86.7983H80.6921V87.4929H82.043V88H80.0771ZM82.5263 88V85.0909H83.1413V87.4929H84.3885V88H82.5263ZM87.3558 86.5455C87.3558 86.8627 87.2957 87.1326 87.1754 87.3551C87.0561 87.5777 86.8932 87.7476 86.6868 87.8651C86.4813 87.9815 86.2502 88.0398 85.9936 88.0398C85.7351 88.0398 85.5031 87.9811 85.2976 87.8636C85.0921 87.7462 84.9297 87.5762 84.8104 87.3537C84.6911 87.1312 84.6314 86.8617 84.6314 86.5455C84.6314 86.2282 84.6911 85.9583 84.8104 85.7358C84.9297 85.5133 85.0921 85.3437 85.2976 85.2273C85.5031 85.1098 85.7351 85.0511 85.9936 85.0511C86.2502 85.0511 86.4813 85.1098 86.6868 85.2273C86.8932 85.3437 87.0561 85.5133 87.1754 85.7358C87.2957 85.9583 87.3558 86.2282 87.3558 86.5455ZM86.7322 86.5455C86.7322 86.34 86.7015 86.1667 86.6399 86.0256C86.5793 85.8845 86.4936 85.7775 86.3828 85.7045C86.272 85.6316 86.1423 85.5952 85.9936 85.5952C85.8449 85.5952 85.7152 85.6316 85.6044 85.7045C85.4936 85.7775 85.4074 85.8845 85.3459 86.0256C85.2853 86.1667 85.255 86.34 85.255 86.5455C85.255 86.7509 85.2853 86.9242 85.3459 87.0653C85.4074 87.2064 85.4936 87.3134 85.6044 87.3864C85.7152 87.4593 85.8449 87.4957 85.9936 87.4957C86.1423 87.4957 86.272 87.4593 86.3828 87.3864C86.4936 87.3134 86.5793 87.2064 86.6399 87.0653C86.7015 86.9242 86.7322 86.7509 86.7322 86.5455ZM87.8114 88V85.0909H88.9762C89.1902 85.0909 89.3687 85.1226 89.5117 85.1861C89.6547 85.2495 89.7622 85.3376 89.8342 85.4503C89.9061 85.562 89.9421 85.6908 89.9421 85.8366C89.9421 85.9503 89.9194 86.0502 89.8739 86.1364C89.8285 86.2216 89.766 86.2917 89.6864 86.3466C89.6078 86.4006 89.5179 86.4389 89.4165 86.4616V86.4901C89.5273 86.4948 89.631 86.526 89.7276 86.5838C89.8252 86.6416 89.9042 86.7225 89.9648 86.8267C90.0254 86.9299 90.0558 87.053 90.0558 87.196C90.0558 87.3504 90.0174 87.4882 89.9407 87.6094C89.8649 87.7296 89.7527 87.8248 89.604 87.8949C89.4554 87.965 89.2721 88 89.0543 88H87.8114ZM88.4265 87.4972H88.9279C89.0993 87.4972 89.2243 87.4645 89.3029 87.3991C89.3815 87.3329 89.4208 87.2448 89.4208 87.1349C89.4208 87.0545 89.4014 86.9834 89.3626 86.9219C89.3237 86.8603 89.2683 86.812 89.1964 86.777C89.1254 86.742 89.0406 86.7244 88.9421 86.7244H88.4265V87.4972ZM88.4265 86.3082H88.8825C88.9667 86.3082 89.0415 86.2936 89.1069 86.2642C89.1732 86.2339 89.2253 86.1913 89.2631 86.1364C89.302 86.0814 89.3214 86.0156 89.3214 85.9389C89.3214 85.8338 89.284 85.7491 89.2092 85.6847C89.1353 85.6203 89.0302 85.5881 88.8938 85.5881H88.4265V86.3082ZM90.9574 88H90.2983L91.3026 85.0909H92.0952L93.098 88H92.4389L91.7102 85.7557H91.6875L90.9574 88ZM90.9162 86.8565H92.473V87.3366H90.9162V86.8565Z" fill="black"/>
</svg>
