<svg width="96" height="100" viewBox="0 0 96 100" fill="none" xmlns="http://www.w3.org/2000/svg">
<rect x="0.5" y="0.5" width="95" height="99" stroke="black" stroke-dasharray="2 2"/>
<path d="M24.3121 44.9173L15.2172 45.1877L15.8889 42.6325L21.3852 42.8436L21.4025 42.7777L16.5693 40.0443L17.098 38.0331L22.6671 38.0343L22.6845 37.9683L17.7785 35.4449L18.4502 32.8896L26.2363 37.5978L25.6599 39.7904L20.568 39.9851L20.5507 40.0511L24.8885 42.7248L24.3121 44.9173Z" fill="black"/>
<path d="M29.8466 32.2282L24.056 25.6986L28.7619 21.5254L30.0286 22.9537L27.0954 25.5549L28.0906 26.6772L30.7815 24.2908L32.0482 25.7192L29.3573 28.1055L30.3526 29.2278L33.273 26.6379L34.5397 28.0662L29.8466 32.2282Z" fill="black"/>
<path d="M39.8908 25.2497L37.8563 16.7629L40.1603 16.2105L41.7498 22.8408L45.181 22.0183L45.6261 23.8747L39.8908 25.2497Z" fill="black"/>
<path d="M60.4095 21.9224C60.1279 22.8523 59.7095 23.582 59.1543 24.1114C58.6 24.6381 57.9658 24.9728 57.2516 25.1157C56.5383 25.2558 55.8037 25.2114 55.0479 24.9825C54.2866 24.7519 53.6485 24.379 53.1337 23.8639C52.6224 23.3469 52.2823 22.7155 52.1134 21.9698C51.9481 21.2221 52.0054 20.3861 52.2854 19.4616C52.5671 18.5318 52.9837 17.8031 53.5353 17.2756C54.0905 16.7461 54.7233 16.411 55.4339 16.27C56.1481 16.1271 56.8858 16.171 57.6471 16.4016C58.4029 16.6305 59.0383 17.0026 59.5531 17.5177C60.0687 18.0301 60.4106 18.6605 60.5787 19.409C60.7476 20.1548 60.6912 20.9926 60.4095 21.9224ZM58.0767 21.2158C58.2282 20.7155 58.2893 20.2739 58.2598 19.891C58.2339 19.5062 58.1186 19.1863 57.9138 18.9313C57.7126 18.6744 57.4244 18.4892 57.0491 18.3755C56.6739 18.2619 56.33 18.2556 56.0174 18.3569C55.7082 18.4562 55.4348 18.6583 55.197 18.9633C54.9627 19.2663 54.7698 19.668 54.6182 20.1682C54.4667 20.6685 54.4039 21.1111 54.4298 21.4959C54.4593 21.8789 54.5746 22.1988 54.7758 22.4556C54.9806 22.7106 55.2706 22.8949 55.6458 23.0086C56.021 23.1222 56.3632 23.1294 56.6723 23.0301C56.9849 22.9289 57.2584 22.7267 57.4927 22.4237C57.7305 22.1187 57.9252 21.7161 58.0767 21.2158Z" fill="black"/>
<path d="M63.9778 29.3737L70.4947 23.569L73.0116 26.3947C73.4537 26.8911 73.7582 27.3675 73.925 27.8238C74.0937 28.2823 74.1326 28.7061 74.0417 29.0952C73.9527 29.4865 73.7427 29.8295 73.4117 30.1243C73.172 30.3378 72.9063 30.4794 72.6145 30.549C72.3246 30.6208 72.0288 30.6218 71.727 30.5521C71.4273 30.4804 71.1395 30.341 70.8638 30.1339L70.8001 30.1906C71.0389 30.4801 71.1946 30.798 71.2672 31.1442C71.3418 31.4886 71.3251 31.8307 71.2169 32.1706C71.1108 32.5085 70.904 32.8145 70.5964 33.0885C70.24 33.4059 69.8397 33.5951 69.3955 33.6559C68.9532 33.7189 68.5004 33.6504 68.0371 33.4506C67.5738 33.2508 67.1314 32.9143 66.71 32.4413L63.9778 29.3737ZM66.9665 29.8845L67.7034 30.7119C67.968 31.0089 68.2215 31.1825 68.4641 31.2327C68.7088 31.2811 68.9404 31.2079 69.1589 31.0133C69.3117 30.8773 69.4099 30.727 69.4536 30.5625C69.4973 30.398 69.4891 30.2265 69.429 30.048C69.3708 29.8716 69.2614 29.6932 69.1008 29.5129L68.3412 28.6601L66.9665 29.8845ZM69.4358 27.6851L70.082 28.4106C70.22 28.5655 70.3662 28.6806 70.5209 28.7559C70.6755 28.8312 70.8277 28.8612 70.9775 28.8457C71.1313 28.8304 71.275 28.7633 71.4086 28.6442C71.6102 28.4647 71.6997 28.2556 71.6773 28.0169C71.657 27.7762 71.5486 27.5456 71.3521 27.325L70.6832 26.574L69.4358 27.6851Z" fill="black"/>
<path d="M71.5434 41.539L71.0399 39.0323L80.1635 40.1377L80.8014 43.3129L72.8124 47.856L72.3088 45.3492L78.1328 42.232L78.1194 42.1652L71.5434 41.539ZM74.8252 40.3929L75.7719 45.1056L74.0339 45.4547L73.0872 40.7421L74.8252 40.3929Z" fill="black"/>
<path d="M41.5689 46V39.4545H44.1896C44.6712 39.4545 45.0728 39.5259 45.3945 39.6687C45.7163 39.8114 45.9581 40.0096 46.12 40.2631C46.282 40.5146 46.3629 40.8043 46.3629 41.1325C46.3629 41.3881 46.3118 41.6129 46.2095 41.8068C46.1072 41.9986 45.9666 42.1562 45.7876 42.2798C45.6108 42.4013 45.4084 42.4876 45.1804 42.5387V42.6026C45.4297 42.6133 45.663 42.6836 45.8803 42.8136C46.0998 42.9435 46.2777 43.1257 46.4141 43.3601C46.5504 43.5923 46.6186 43.8693 46.6186 44.1911C46.6186 44.5384 46.5323 44.8484 46.3597 45.1211C46.1893 45.3917 45.9368 45.6058 45.6023 45.7635C45.2678 45.9212 44.8555 46 44.3654 46H41.5689ZM42.9528 44.8686H44.081C44.4666 44.8686 44.7479 44.7951 44.9247 44.6481C45.1016 44.4989 45.19 44.3008 45.19 44.0536C45.19 43.8725 45.1463 43.7127 45.0589 43.5742C44.9716 43.4357 44.8469 43.3271 44.685 43.2482C44.5252 43.1694 44.3345 43.13 44.1129 43.13H42.9528V44.8686ZM42.9528 42.1935H43.9787C44.1683 42.1935 44.3366 42.1605 44.4837 42.0945C44.6328 42.0263 44.75 41.9304 44.8352 41.8068C44.9226 41.6832 44.9663 41.5352 44.9663 41.3626C44.9663 41.1261 44.8821 40.9354 44.7138 40.7905C44.5476 40.6456 44.3111 40.5732 44.0043 40.5732H42.9528V42.1935ZM47.1356 39.4545H48.6856L50.1782 42.2734H50.2421L51.7346 39.4545H53.2847L50.8973 43.6861V46H49.523V43.6861L47.1356 39.4545Z" fill="black"/>
<path d="M13.6456 61V54.4545H16.1513C16.6243 54.4545 17.0174 54.5291 17.3306 54.6783C17.646 54.8253 17.8814 55.0266 18.0369 55.2823C18.1946 55.538 18.2734 55.8278 18.2734 56.1516C18.2734 56.418 18.2223 56.646 18.12 56.8356C18.0178 57.0231 17.8803 57.1754 17.7077 57.2926C17.5352 57.4098 17.3423 57.494 17.1293 57.5451V57.609C17.3615 57.6218 17.5842 57.6932 17.7972 57.8232C18.0124 57.951 18.1882 58.1321 18.3246 58.3665C18.4609 58.6009 18.5291 58.8842 18.5291 59.2166C18.5291 59.5554 18.4471 59.8601 18.283 60.1307C18.119 60.3991 17.8718 60.6112 17.5415 60.7667C17.2113 60.9222 16.7958 61 16.2951 61H13.6456ZM14.8313 60.0092H16.1065C16.5369 60.0092 16.8469 59.9272 17.0366 59.7631C17.2283 59.5969 17.3242 59.3839 17.3242 59.1239C17.3242 58.93 17.2763 58.7553 17.1804 58.5998C17.0845 58.4421 16.9482 58.3185 16.7713 58.229C16.5945 58.1374 16.3835 58.0916 16.1385 58.0916H14.8313V60.0092ZM14.8313 57.2383H16.0043C16.2088 57.2383 16.3931 57.201 16.5572 57.1264C16.7212 57.0497 16.8501 56.9421 16.9439 56.8036C17.0398 56.663 17.0877 56.4968 17.0877 56.305C17.0877 56.0515 16.9982 55.8427 16.8192 55.6786C16.6424 55.5146 16.3793 55.4325 16.0298 55.4325H14.8313V57.2383ZM19.5606 61V54.4545H22.0152C22.518 54.4545 22.9399 54.5419 23.2808 54.7166C23.6238 54.8913 23.8827 55.1364 24.0574 55.4517C24.2343 55.7649 24.3227 56.1303 24.3227 56.5479C24.3227 56.9677 24.2332 57.332 24.0542 57.641C23.8774 57.9478 23.6164 58.1854 23.2712 58.3537C22.926 58.5199 22.502 58.603 21.9992 58.603H20.251V57.6186H21.8394C22.1334 57.6186 22.3742 57.5781 22.5617 57.4972C22.7492 57.4141 22.8877 57.2937 22.9772 57.136C23.0688 56.9762 23.1146 56.7802 23.1146 56.5479C23.1146 56.3157 23.0688 56.1175 22.9772 55.9535C22.8856 55.7873 22.746 55.6616 22.5585 55.5763C22.371 55.489 22.1292 55.4453 21.833 55.4453H20.7464V61H19.5606ZM22.942 58.0341L24.5624 61H23.2393L21.6476 58.0341H22.942ZM26.5999 54.4545V61H25.4142V54.4545H26.5999ZM28.7244 61H27.4588L29.7631 54.4545H31.2269L33.5344 61H32.2688L30.5206 55.7969H30.4695L28.7244 61ZM28.766 58.4336H32.2177V59.386H28.766V58.4336ZM39.7755 54.4545V61H38.7208L35.6366 56.5415H35.5823V61H34.3966V54.4545H35.4577L38.5386 58.9162H38.5961V54.4545H39.7755ZM44.6774 61L42.8301 54.4545H44.1053L45.2846 59.2646H45.3453L46.6046 54.4545H47.7647L49.0272 59.2678H49.0847L50.264 54.4545H51.5392L49.6919 61H48.5222L47.2118 56.4073H47.1607L45.8471 61H44.6774ZM52.3614 61V54.4545H56.6185V55.4485H53.5471V57.2255H56.398V58.2195H53.5471V60.006H56.6441V61H52.3614ZM57.8282 61V54.4545H59.0139V60.006H61.8968V61H57.8282ZM68.5197 57.7273C68.5197 58.4325 68.3876 59.0366 68.1234 59.5394C67.8613 60.0401 67.5034 60.4237 67.0495 60.69C66.5978 60.9563 66.0854 61.0895 65.5123 61.0895C64.9391 61.0895 64.4256 60.9563 63.9718 60.69C63.5201 60.4215 63.1621 60.0369 62.8979 59.5362C62.6358 59.0334 62.5048 58.4304 62.5048 57.7273C62.5048 57.022 62.6358 56.419 62.8979 55.9183C63.1621 55.4155 63.5201 55.0309 63.9718 54.7646C64.4256 54.4982 64.9391 54.3651 65.5123 54.3651C66.0854 54.3651 66.5978 54.4982 67.0495 54.7646C67.5034 55.0309 67.8613 55.4155 68.1234 55.9183C68.3876 56.419 68.5197 57.022 68.5197 57.7273ZM67.3276 57.7273C67.3276 57.2308 67.2498 56.8121 67.0943 56.4712C66.9409 56.1282 66.7278 55.8693 66.4551 55.6946C66.1824 55.5178 65.8681 55.4293 65.5123 55.4293C65.1564 55.4293 64.8422 55.5178 64.5694 55.6946C64.2967 55.8693 64.0826 56.1282 63.927 56.4712C63.7736 56.8121 63.6969 57.2308 63.6969 57.7273C63.6969 58.2237 63.7736 58.6435 63.927 58.9865C64.0826 59.3274 64.2967 59.5863 64.5694 59.7631C64.8422 59.9379 65.1564 60.0252 65.5123 60.0252C65.8681 60.0252 66.1824 59.9379 66.4551 59.7631C66.7278 59.5863 66.9409 59.3274 67.0943 58.9865C67.2498 58.6435 67.3276 58.2237 67.3276 57.7273ZM69.6407 61V54.4545H72.1464C72.6194 54.4545 73.0125 54.5291 73.3257 54.6783C73.6411 54.8253 73.8765 55.0266 74.032 55.2823C74.1897 55.538 74.2686 55.8278 74.2686 56.1516C74.2686 56.418 74.2174 56.646 74.1151 56.8356C74.0129 57.0231 73.8754 57.1754 73.7029 57.2926C73.5303 57.4098 73.3374 57.494 73.1244 57.5451V57.609C73.3566 57.6218 73.5793 57.6932 73.7923 57.8232C74.0075 57.951 74.1833 58.1321 74.3197 58.3665C74.4561 58.6009 74.5242 58.8842 74.5242 59.2166C74.5242 59.5554 74.4422 59.8601 74.2781 60.1307C74.1141 60.3991 73.8669 60.6112 73.5367 60.7667C73.2064 60.9222 72.7909 61 72.2902 61H69.6407ZM70.8264 60.0092H72.1017C72.532 60.0092 72.8421 59.9272 73.0317 59.7631C73.2235 59.5969 73.3193 59.3839 73.3193 59.1239C73.3193 58.93 73.2714 58.7553 73.1755 58.5998C73.0796 58.4421 72.9433 58.3185 72.7664 58.229C72.5896 58.1374 72.3786 58.0916 72.1336 58.0916H70.8264V60.0092ZM70.8264 57.2383H71.9994C72.2039 57.2383 72.3882 57.201 72.5523 57.1264C72.7164 57.0497 72.8453 56.9421 72.939 56.8036C73.0349 56.663 73.0828 56.4968 73.0828 56.305C73.0828 56.0515 72.9933 55.8427 72.8144 55.6786C72.6375 55.5146 72.3744 55.4325 72.0249 55.4325H70.8264V57.2383ZM76.3963 61H75.1307L77.435 54.4545H78.8988L81.2063 61H79.9407L78.1925 55.7969H78.1413L76.3963 61ZM76.4379 58.4336H79.8896V59.386H76.4379V58.4336Z" fill="black"/>
<path d="M42.3587 68V64.3636H44.6882V64.9158H43.0174V65.9031H44.5284V66.4553H43.0174V68H42.3587ZM48.5376 66.1818C48.5376 66.5736 48.4643 66.9092 48.3175 67.1886C48.1719 67.4667 47.973 67.6798 47.7209 67.8278C47.4699 67.9757 47.1853 68.0497 46.8668 68.0497C46.5484 68.0497 46.2631 67.9757 46.011 67.8278C45.7601 67.6786 45.5612 67.465 45.4144 67.1868C45.2688 66.9074 45.196 66.5724 45.196 66.1818C45.196 65.79 45.2688 65.455 45.4144 65.1768C45.5612 64.8975 45.7601 64.6838 46.011 64.5359C46.2631 64.3879 46.5484 64.3139 46.8668 64.3139C47.1853 64.3139 47.4699 64.3879 47.7209 64.5359C47.973 64.6838 48.1719 64.8975 48.3175 65.1768C48.4643 65.455 48.5376 65.79 48.5376 66.1818ZM47.8754 66.1818C47.8754 65.906 47.8321 65.6734 47.7457 65.484C47.6605 65.2934 47.5421 65.1496 47.3906 65.0526C47.2391 64.9543 47.0645 64.9052 46.8668 64.9052C46.6692 64.9052 46.4946 64.9543 46.343 65.0526C46.1915 65.1496 46.0726 65.2934 45.9862 65.484C45.9009 65.6734 45.8583 65.906 45.8583 66.1818C45.8583 66.4576 45.9009 66.6908 45.9862 66.8814C46.0726 67.0708 46.1915 67.2146 46.343 67.3129C46.4946 67.4099 46.6692 67.4585 46.8668 67.4585C47.0645 67.4585 47.2391 67.4099 47.3906 67.3129C47.5421 67.2146 47.6605 67.0708 47.7457 66.8814C47.8321 66.6908 47.8754 66.4576 47.8754 66.1818ZM49.1604 68V64.3636H50.5241C50.8034 64.3636 51.0378 64.4122 51.2272 64.5092C51.4178 64.6063 51.5616 64.7424 51.6586 64.9176C51.7569 65.0916 51.806 65.2946 51.806 65.5266C51.806 65.7598 51.7563 65.9622 51.6569 66.1339C51.5586 66.3043 51.4136 66.4363 51.2219 66.5298C51.0301 66.6222 50.7945 66.6683 50.5152 66.6683H49.5439V66.1214H50.4264C50.5898 66.1214 50.7235 66.099 50.8277 66.054C50.9318 66.0078 51.0088 65.9409 51.0585 65.8533C51.1094 65.7646 51.1349 65.6557 51.1349 65.5266C51.1349 65.3976 51.1094 65.2875 51.0585 65.1964C51.0076 65.104 50.9301 65.0342 50.8259 64.9869C50.7217 64.9383 50.5874 64.9141 50.4229 64.9141H49.8192V68H49.1604ZM51.039 66.3523L51.9392 68H51.2041L50.3199 66.3523H51.039Z" fill="black"/>
<path d="M10.4304 76V71.6364H12.1009C12.4162 71.6364 12.6783 71.6861 12.8871 71.7855C13.0973 71.8835 13.2543 72.0178 13.358 72.1882C13.4631 72.3587 13.5156 72.5518 13.5156 72.7678C13.5156 72.9453 13.4815 73.0973 13.4134 73.2237C13.3452 73.3487 13.2536 73.4503 13.1385 73.5284C13.0234 73.6065 12.8949 73.6626 12.7528 73.6967V73.7393C12.9077 73.7479 13.0561 73.7955 13.1982 73.8821C13.3416 73.9673 13.4588 74.0881 13.5497 74.2443C13.6406 74.4006 13.6861 74.5895 13.6861 74.8111C13.6861 75.0369 13.6314 75.2401 13.522 75.4205C13.4126 75.5994 13.2479 75.7408 13.0277 75.8445C12.8075 75.9482 12.5305 76 12.1967 76H10.4304ZM11.2209 75.3395H12.071C12.358 75.3395 12.5646 75.2848 12.6911 75.1754C12.8189 75.0646 12.8828 74.9226 12.8828 74.7493C12.8828 74.62 12.8509 74.5036 12.7869 74.3999C12.723 74.2947 12.6321 74.2124 12.5142 74.1527C12.3963 74.0916 12.2557 74.0611 12.0923 74.0611H11.2209V75.3395ZM11.2209 73.4922H12.0028C12.1392 73.4922 12.2621 73.4673 12.3714 73.4176C12.4808 73.3665 12.5668 73.2947 12.6293 73.2024C12.6932 73.1087 12.7251 72.9979 12.7251 72.87C12.7251 72.701 12.6655 72.5618 12.5462 72.4524C12.4283 72.343 12.2528 72.2884 12.0199 72.2884H11.2209V73.4922ZM14.3738 76V71.6364H16.0101C16.3453 71.6364 16.6266 71.6946 16.8539 71.8111C17.0826 71.9276 17.2551 72.0909 17.3716 72.3011C17.4895 72.5099 17.5485 72.7536 17.5485 73.032C17.5485 73.3118 17.4888 73.5547 17.3695 73.7607C17.2516 73.9652 17.0776 74.1236 16.8475 74.2358C16.6174 74.3466 16.3347 74.402 15.9995 74.402H14.834V73.7457H15.8929C16.089 73.7457 16.2495 73.7187 16.3745 73.6648C16.4995 73.6094 16.5918 73.5291 16.6515 73.424C16.7125 73.3175 16.7431 73.1868 16.7431 73.032C16.7431 72.8771 16.7125 72.745 16.6515 72.6357C16.5904 72.5249 16.4973 72.4411 16.3723 72.3842C16.2473 72.326 16.0861 72.2969 15.8887 72.2969H15.1642V76H14.3738ZM16.628 74.0227L17.7083 76H16.8262L15.7651 74.0227H16.628ZM19.0666 71.6364V76H18.2761V71.6364H19.0666ZM20.483 76H19.6392L21.1754 71.6364H22.1513L23.6896 76H22.8459L21.6804 72.5312H21.6463L20.483 76ZM20.5107 74.2891H22.8118V74.924H20.5107V74.2891ZM27.8503 71.6364V76H27.1472L25.0911 73.0277H25.0549V76H24.2644V71.6364H24.9718L27.0257 74.6108H27.0641V71.6364H27.8503ZM30.1999 76V71.6364H31.8704C32.1857 71.6364 32.4478 71.6861 32.6566 71.7855C32.8668 71.8835 33.0238 72.0178 33.1275 72.1882C33.2326 72.3587 33.2852 72.5518 33.2852 72.7678C33.2852 72.9453 33.2511 73.0973 33.1829 73.2237C33.1147 73.3487 33.0231 73.4503 32.908 73.5284C32.793 73.6065 32.6644 73.6626 32.5224 73.6967V73.7393C32.6772 73.7479 32.8256 73.7955 32.9677 73.8821C33.1112 73.9673 33.2283 74.0881 33.3192 74.2443C33.4102 74.4006 33.4556 74.5895 33.4556 74.8111C33.4556 75.0369 33.4009 75.2401 33.2915 75.4205C33.1822 75.5994 33.0174 75.7408 32.7972 75.8445C32.5771 75.9482 32.3001 76 31.9663 76H30.1999ZM30.9904 75.3395H31.8406C32.1275 75.3395 32.3342 75.2848 32.4606 75.1754C32.5884 75.0646 32.6523 74.9226 32.6523 74.7493C32.6523 74.62 32.6204 74.5036 32.5565 74.3999C32.4925 74.2947 32.4016 74.2124 32.2837 74.1527C32.1658 74.0916 32.0252 74.0611 31.8619 74.0611H30.9904V75.3395ZM30.9904 73.4922H31.7724C31.9087 73.4922 32.0316 73.4673 32.141 73.4176C32.2504 73.3665 32.3363 73.2947 32.3988 73.2024C32.4627 73.1087 32.4947 72.9979 32.4947 72.87C32.4947 72.701 32.435 72.5618 32.3157 72.4524C32.1978 72.343 32.0224 72.2884 31.7894 72.2884H30.9904V73.4922ZM33.845 71.6364H34.7377L35.8052 73.5668H35.8478L36.9153 71.6364H37.8081L36.2207 74.3722V76H35.4324V74.3722L33.845 71.6364ZM39.8562 76V71.6364H41.5266C41.842 71.6364 42.104 71.6861 42.3129 71.7855C42.5231 71.8835 42.68 72.0178 42.7837 72.1882C42.8888 72.3587 42.9414 72.5518 42.9414 72.7678C42.9414 72.9453 42.9073 73.0973 42.8391 73.2237C42.771 73.3487 42.6793 73.4503 42.5643 73.5284C42.4492 73.6065 42.3207 73.6626 42.1786 73.6967V73.7393C42.3335 73.7479 42.4819 73.7955 42.6239 73.8821C42.7674 73.9673 42.8846 74.0881 42.9755 74.2443C43.0664 74.4006 43.1119 74.5895 43.1119 74.8111C43.1119 75.0369 43.0572 75.2401 42.9478 75.4205C42.8384 75.5994 42.6737 75.7408 42.4535 75.8445C42.2333 75.9482 41.9563 76 41.6225 76H39.8562ZM40.6467 75.3395H41.4968C41.7837 75.3395 41.9904 75.2848 42.1168 75.1754C42.2447 75.0646 42.3086 74.9226 42.3086 74.7493C42.3086 74.62 42.2766 74.5036 42.2127 74.3999C42.1488 74.2947 42.0579 74.2124 41.94 74.1527C41.8221 74.0916 41.6815 74.0611 41.5181 74.0611H40.6467V75.3395ZM40.6467 73.4922H41.4286C41.565 73.4922 41.6879 73.4673 41.7972 73.4176C41.9066 73.3665 41.9925 73.2947 42.055 73.2024C42.119 73.1087 42.1509 72.9979 42.1509 72.87C42.1509 72.701 42.0913 72.5618 41.9719 72.4524C41.854 72.343 41.6786 72.2884 41.4457 72.2884H40.6467V73.4922ZM43.7995 76V71.6364H45.4359C45.7711 71.6364 46.0524 71.6946 46.2797 71.8111C46.5083 71.9276 46.6809 72.0909 46.7974 72.3011C46.9153 72.5099 46.9743 72.7536 46.9743 73.032C46.9743 73.3118 46.9146 73.5547 46.7953 73.7607C46.6774 73.9652 46.5034 74.1236 46.2733 74.2358C46.0431 74.3466 45.7605 74.402 45.4252 74.402H44.2598V73.7457H45.3187C45.5147 73.7457 45.6752 73.7187 45.8002 73.6648C45.9252 73.6094 46.0176 73.5291 46.0772 73.424C46.1383 73.3175 46.1689 73.1868 46.1689 73.032C46.1689 72.8771 46.1383 72.745 46.0772 72.6357C46.0162 72.5249 45.9231 72.4411 45.7981 72.3842C45.6731 72.326 45.5119 72.2969 45.3145 72.2969H44.59V76H43.7995ZM46.0538 74.0227L47.1341 76H46.252L45.1909 74.0227H46.0538ZM48.4924 71.6364V76H47.7019V71.6364H48.4924ZM49.9087 76H49.065L50.6012 71.6364H51.5771L53.1154 76H52.2717L51.1062 72.5312H51.0721L49.9087 76ZM49.9364 74.2891H52.2376V74.924H49.9364V74.2891ZM57.2761 71.6364V76H56.573L54.5169 73.0277H54.4806V76H53.6902V71.6364H54.3975L56.4515 74.6108H56.4899V71.6364H57.2761ZM60.544 76L59.3125 71.6364H60.1626L60.9489 74.843H60.9893L61.8288 71.6364H62.6023L63.4439 74.8452H63.4822L64.2685 71.6364H65.1186L63.8871 76H63.1072L62.2337 72.9382H62.1996L61.3239 76H60.544ZM65.6667 76V71.6364H68.5048V72.299H66.4572V73.4837H68.3578V74.1463H66.4572V75.3374H68.5218V76H65.6667ZM69.3113 76V71.6364H70.1017V75.3374H72.0236V76H69.3113ZM76.4389 73.8182C76.4389 74.2884 76.3509 74.6911 76.1747 75.0263C76 75.3601 75.7614 75.6158 75.4588 75.7933C75.1577 75.9709 74.8161 76.0597 74.4339 76.0597C74.0518 76.0597 73.7095 75.9709 73.407 75.7933C73.1058 75.6143 72.8672 75.358 72.6911 75.0241C72.5163 74.6889 72.429 74.2869 72.429 73.8182C72.429 73.348 72.5163 72.946 72.6911 72.6122C72.8672 72.277 73.1058 72.0206 73.407 71.843C73.7095 71.6655 74.0518 71.5767 74.4339 71.5767C74.8161 71.5767 75.1577 71.6655 75.4588 71.843C75.7614 72.0206 76 72.277 76.1747 72.6122C76.3509 72.946 76.4389 73.348 76.4389 73.8182ZM75.6442 73.8182C75.6442 73.4872 75.5923 73.2081 75.4886 72.9808C75.3864 72.7521 75.2443 72.5795 75.0625 72.4631C74.8807 72.3452 74.6712 72.2862 74.4339 72.2862C74.1967 72.2862 73.9872 72.3452 73.8054 72.4631C73.6236 72.5795 73.4808 72.7521 73.3771 72.9808C73.2749 73.2081 73.2237 73.4872 73.2237 73.8182C73.2237 74.1491 73.2749 74.429 73.3771 74.6577C73.4808 74.8849 73.6236 75.0575 73.8054 75.1754C73.9872 75.2919 74.1967 75.3501 74.4339 75.3501C74.6712 75.3501 74.8807 75.2919 75.0625 75.1754C75.2443 75.0575 75.3864 74.8849 75.4886 74.6577C75.5923 74.429 75.6442 74.1491 75.6442 73.8182ZM77.1863 76V71.6364H78.8567C79.1721 71.6364 79.4341 71.6861 79.6429 71.7855C79.8532 71.8835 80.0101 72.0178 80.1138 72.1882C80.2189 72.3587 80.2715 72.5518 80.2715 72.7678C80.2715 72.9453 80.2374 73.0973 80.1692 73.2237C80.101 73.3487 80.0094 73.4503 79.8944 73.5284C79.7793 73.6065 79.6507 73.6626 79.5087 73.6967V73.7393C79.6635 73.7479 79.812 73.7955 79.954 73.8821C80.0975 73.9673 80.2147 74.0881 80.3056 74.2443C80.3965 74.4006 80.4419 74.5895 80.4419 74.8111C80.4419 75.0369 80.3873 75.2401 80.2779 75.4205C80.1685 75.5994 80.0037 75.7408 79.7836 75.8445C79.5634 75.9482 79.2864 76 78.9526 76H77.1863ZM77.9767 75.3395H78.8269C79.1138 75.3395 79.3205 75.2848 79.4469 75.1754C79.5748 75.0646 79.6387 74.9226 79.6387 74.7493C79.6387 74.62 79.6067 74.5036 79.5428 74.3999C79.4789 74.2947 79.388 74.2124 79.2701 74.1527C79.1522 74.0916 79.0115 74.0611 78.8482 74.0611H77.9767V75.3395ZM77.9767 73.4922H78.7587C78.8951 73.4922 79.0179 73.4673 79.1273 73.4176C79.2367 73.3665 79.3226 73.2947 79.3851 73.2024C79.449 73.1087 79.481 72.9979 79.481 72.87C79.481 72.701 79.4213 72.5618 79.302 72.4524C79.1841 72.343 79.0087 72.2884 78.7757 72.2884H77.9767V73.4922ZM81.69 76H80.8462L82.3825 71.6364H83.3583L84.8967 76H84.0529L82.8874 72.5312H82.8533L81.69 76ZM81.7177 74.2891H84.0188V74.924H81.7177V74.2891Z" fill="black"/>
<path d="M22.8139 79.0909V82H22.2869V79.0909H22.8139ZM25.7752 79.0909V82H25.3065L23.9357 80.0185H23.9116V82H23.3846V79.0909H23.8562L25.2255 81.0739H25.2511V79.0909H25.7752ZM29.8317 80.0724H29.3004C29.2853 79.9853 29.2573 79.9081 29.2166 79.8409C29.1759 79.7727 29.1252 79.715 29.0646 79.6676C29.004 79.6203 28.9349 79.5848 28.8572 79.5611C28.7805 79.5365 28.6977 79.5241 28.6087 79.5241C28.4505 79.5241 28.3104 79.5639 28.1882 79.6435C28.0661 79.7221 27.9704 79.8376 27.9013 79.9901C27.8321 80.1416 27.7976 80.3267 27.7976 80.5455C27.7976 80.768 27.8321 80.9555 27.9013 81.108C27.9714 81.2595 28.067 81.3741 28.1882 81.4517C28.3104 81.5284 28.45 81.5668 28.6072 81.5668C28.6944 81.5668 28.7758 81.5554 28.8516 81.5327C28.9283 81.509 28.9969 81.4744 29.0575 81.429C29.1191 81.3835 29.1707 81.3277 29.2124 81.2614C29.255 81.1951 29.2843 81.1193 29.3004 81.0341L29.8317 81.0369C29.8118 81.1752 29.7687 81.3049 29.7024 81.4261C29.6371 81.5473 29.5514 81.6544 29.4453 81.7472C29.3393 81.839 29.2152 81.911 29.0732 81.9631C28.9311 82.0142 28.7734 82.0398 28.6001 82.0398C28.3445 82.0398 28.1162 81.9806 27.9155 81.8622C27.7147 81.7438 27.5566 81.5729 27.4411 81.3494C27.3255 81.1259 27.2678 80.858 27.2678 80.5455C27.2678 80.232 27.326 79.964 27.4425 79.7415C27.5589 79.518 27.7176 79.3471 27.9183 79.2287C28.1191 79.1103 28.3464 79.0511 28.6001 79.0511C28.7621 79.0511 28.9126 79.0739 29.0518 79.1193C29.1911 79.1648 29.3151 79.2315 29.424 79.3196C29.5329 79.4067 29.6224 79.5137 29.6925 79.6406C29.7635 79.7666 29.8099 79.9105 29.8317 80.0724ZM32.9137 80.5455C32.9137 80.8589 32.855 81.1274 32.7376 81.3509C32.6211 81.5734 32.462 81.7438 32.2603 81.8622C32.0595 81.9806 31.8318 82.0398 31.5771 82.0398C31.3223 82.0398 31.0941 81.9806 30.8924 81.8622C30.6916 81.7429 30.5326 81.572 30.4151 81.3494C30.2987 81.1259 30.2404 80.858 30.2404 80.5455C30.2404 80.232 30.2987 79.964 30.4151 79.7415C30.5326 79.518 30.6916 79.3471 30.8924 79.2287C31.0941 79.1103 31.3223 79.0511 31.5771 79.0511C31.8318 79.0511 32.0595 79.1103 32.2603 79.2287C32.462 79.3471 32.6211 79.518 32.7376 79.7415C32.855 79.964 32.9137 80.232 32.9137 80.5455ZM32.3839 80.5455C32.3839 80.3248 32.3493 80.1387 32.2802 79.9872C32.212 79.8348 32.1173 79.7197 31.9961 79.642C31.8749 79.5634 31.7352 79.5241 31.5771 79.5241C31.4189 79.5241 31.2792 79.5634 31.158 79.642C31.0368 79.7197 30.9416 79.8348 30.8725 79.9872C30.8043 80.1387 30.7702 80.3248 30.7702 80.5455C30.7702 80.7661 30.8043 80.9527 30.8725 81.1051C30.9416 81.2566 31.0368 81.3717 31.158 81.4503C31.2792 81.5279 31.4189 81.5668 31.5771 81.5668C31.7352 81.5668 31.8749 81.5279 31.9961 81.4503C32.1173 81.3717 32.212 81.2566 32.2802 81.1051C32.3493 80.9527 32.3839 80.7661 32.3839 80.5455ZM33.4119 82V79.0909H33.9389V81.5582H35.2202V82H33.4119ZM35.6776 82V79.0909H36.2045V81.5582H37.4858V82H35.6776ZM38.4261 82H37.8636L38.8878 79.0909H39.5384L40.5639 82H40.0014L39.2244 79.6875H39.2017L38.4261 82ZM38.4446 80.8594H39.9787V81.2827H38.4446V80.8594ZM40.9471 82V79.0909H42.0607C42.271 79.0909 42.4457 79.1241 42.5849 79.1903C42.725 79.2557 42.8297 79.3452 42.8988 79.4588C42.9689 79.5724 43.0039 79.7012 43.0039 79.8452C43.0039 79.9635 42.9812 80.0649 42.9357 80.1491C42.8903 80.2325 42.8292 80.3002 42.7525 80.3523C42.6758 80.4044 42.5901 80.4418 42.4954 80.4645V80.4929C42.5986 80.4986 42.6976 80.5303 42.7923 80.5881C42.8879 80.6449 42.966 80.7254 43.0266 80.8295C43.0872 80.9337 43.1175 81.0597 43.1175 81.2074C43.1175 81.358 43.0811 81.4934 43.0082 81.6136C42.9353 81.733 42.8254 81.8272 42.6786 81.8963C42.5318 81.9654 42.3472 82 42.1246 82H40.9471ZM41.4741 81.5597H42.0408C42.2321 81.5597 42.3699 81.5232 42.4542 81.4503C42.5394 81.3764 42.582 81.2817 42.582 81.1662C42.582 81.08 42.5607 81.0024 42.5181 80.9332C42.4755 80.8632 42.4149 80.8082 42.3363 80.7685C42.2577 80.7277 42.1639 80.7074 42.055 80.7074H41.4741V81.5597ZM41.4741 80.3281H41.9954C42.0863 80.3281 42.1682 80.3116 42.2411 80.2784C42.314 80.2443 42.3713 80.1965 42.413 80.1349C42.4556 80.0724 42.4769 79.9986 42.4769 79.9134C42.4769 79.8007 42.4371 79.7079 42.3576 79.6349C42.279 79.562 42.1621 79.5256 42.0067 79.5256H41.4741V80.3281ZM46.1754 80.5455C46.1754 80.8589 46.1167 81.1274 45.9993 81.3509C45.8828 81.5734 45.7237 81.7438 45.522 81.8622C45.3213 81.9806 45.0935 82.0398 44.8388 82.0398C44.584 82.0398 44.3558 81.9806 44.1541 81.8622C43.9534 81.7429 43.7943 81.572 43.6768 81.3494C43.5604 81.1259 43.5021 80.858 43.5021 80.5455C43.5021 80.232 43.5604 79.964 43.6768 79.7415C43.7943 79.518 43.9534 79.3471 44.1541 79.2287C44.3558 79.1103 44.584 79.0511 44.8388 79.0511C45.0935 79.0511 45.3213 79.1103 45.522 79.2287C45.7237 79.3471 45.8828 79.518 45.9993 79.7415C46.1167 79.964 46.1754 80.232 46.1754 80.5455ZM45.6456 80.5455C45.6456 80.3248 45.611 80.1387 45.5419 79.9872C45.4737 79.8348 45.379 79.7197 45.2578 79.642C45.1366 79.5634 44.9969 79.5241 44.8388 79.5241C44.6806 79.5241 44.541 79.5634 44.4197 79.642C44.2985 79.7197 44.2034 79.8348 44.1342 79.9872C44.0661 80.1387 44.032 80.3248 44.032 80.5455C44.032 80.7661 44.0661 80.9527 44.1342 81.1051C44.2034 81.2566 44.2985 81.3717 44.4197 81.4503C44.541 81.5279 44.6806 81.5668 44.8388 81.5668C44.9969 81.5668 45.1366 81.5279 45.2578 81.4503C45.379 81.3717 45.4737 81.2566 45.5419 81.1051C45.611 80.9527 45.6456 80.7661 45.6456 80.5455ZM46.6737 82V79.0909H47.7646C47.988 79.0909 48.1755 79.1297 48.3271 79.2074C48.4795 79.285 48.5946 79.3939 48.6722 79.5341C48.7508 79.6733 48.7901 79.8357 48.7901 80.0213C48.7901 80.2079 48.7504 80.3698 48.6708 80.5071C48.5922 80.6435 48.4762 80.7491 48.3228 80.8239C48.1694 80.8977 47.9809 80.9347 47.7575 80.9347H46.9805V80.4972H47.6864C47.8171 80.4972 47.9241 80.4792 48.0075 80.4432C48.0908 80.4062 48.1523 80.3527 48.1921 80.2827C48.2328 80.2116 48.2532 80.1245 48.2532 80.0213C48.2532 79.9181 48.2328 79.83 48.1921 79.7571C48.1514 79.6832 48.0894 79.6274 48.006 79.5895C47.9227 79.5507 47.8152 79.5312 47.6836 79.5312H47.2006V82H46.6737ZM48.1765 80.6818L48.8967 82H48.3086L47.6012 80.6818H48.1765ZM49.6488 82H49.0863L50.1104 79.0909H50.761L51.7866 82H51.2241L50.4471 79.6875H50.4244L49.6488 82ZM49.6673 80.8594H51.2013V81.2827H49.6673V80.8594ZM51.6903 79.5327V79.0909H54.0114V79.5327H53.1122V82H52.5895V79.5327H51.6903ZM54.9858 79.0909V82H54.4588V79.0909H54.9858ZM58.1559 80.5455C58.1559 80.8589 58.0972 81.1274 57.9798 81.3509C57.8633 81.5734 57.7042 81.7438 57.5025 81.8622C57.3017 81.9806 57.074 82.0398 56.8192 82.0398C56.5645 82.0398 56.3363 81.9806 56.1346 81.8622C55.9338 81.7429 55.7747 81.572 55.6573 81.3494C55.5408 81.1259 55.4826 80.858 55.4826 80.5455C55.4826 80.232 55.5408 79.964 55.6573 79.7415C55.7747 79.518 55.9338 79.3471 56.1346 79.2287C56.3363 79.1103 56.5645 79.0511 56.8192 79.0511C57.074 79.0511 57.3017 79.1103 57.5025 79.2287C57.7042 79.3471 57.8633 79.518 57.9798 79.7415C58.0972 79.964 58.1559 80.232 58.1559 80.5455ZM57.6261 80.5455C57.6261 80.3248 57.5915 80.1387 57.5224 79.9872C57.4542 79.8348 57.3595 79.7197 57.2383 79.642C57.1171 79.5634 56.9774 79.5241 56.8192 79.5241C56.6611 79.5241 56.5214 79.5634 56.4002 79.642C56.279 79.7197 56.1838 79.8348 56.1147 79.9872C56.0465 80.1387 56.0124 80.3248 56.0124 80.5455C56.0124 80.7661 56.0465 80.9527 56.1147 81.1051C56.1838 81.2566 56.279 81.3717 56.4002 81.4503C56.5214 81.5279 56.6611 81.5668 56.8192 81.5668C56.9774 81.5668 57.1171 81.5279 57.2383 81.4503C57.3595 81.3717 57.4542 81.2566 57.5224 81.1051C57.5915 80.9527 57.6261 80.7661 57.6261 80.5455ZM61.0447 79.0909V82H60.576L59.2053 80.0185H59.1811V82H58.6541V79.0909H59.1257L60.495 81.0739H60.5206V79.0909H61.0447ZM63.2234 82L62.4023 79.0909H62.9691L63.4933 81.2287H63.5202L64.0799 79.0909H64.5955L65.1566 81.2301H65.1822L65.7063 79.0909H66.2731L65.4521 82H64.9322L64.3498 79.9588H64.3271L63.7433 82H63.2234ZM67.1655 79.0909V82H66.6385V79.0909H67.1655ZM67.6083 79.5327V79.0909H69.9293V79.5327H69.0302V82H68.5075V79.5327H67.6083ZM70.3768 82V79.0909H70.9038V80.3224H72.2518V79.0909H72.7802V82H72.2518V80.7642H70.9038V82H70.3768Z" fill="black"/>
<path d="M2.28693 88V85.0909H3.40057C3.6108 85.0909 3.78551 85.1241 3.92472 85.1903C4.06487 85.2557 4.16951 85.3452 4.23864 85.4588C4.30871 85.5724 4.34375 85.7012 4.34375 85.8452C4.34375 85.9635 4.32102 86.0649 4.27557 86.1491C4.23011 86.2325 4.16903 86.3002 4.09233 86.3523C4.01562 86.4044 3.92992 86.4418 3.83523 86.4645V86.4929C3.93845 86.4986 4.03741 86.5303 4.1321 86.5881C4.22775 86.6449 4.30587 86.7254 4.36648 86.8295C4.42708 86.9337 4.45739 87.0597 4.45739 87.2074C4.45739 87.358 4.42093 87.4934 4.34801 87.6136C4.27509 87.733 4.16525 87.8272 4.01847 87.8963C3.87169 87.9654 3.68703 88 3.46449 88H2.28693ZM2.81392 87.5597H3.38068C3.57197 87.5597 3.70975 87.5232 3.79403 87.4503C3.87926 87.3764 3.92188 87.2817 3.92188 87.1662C3.92188 87.08 3.90057 87.0024 3.85795 86.9332C3.81534 86.8632 3.75473 86.8082 3.67614 86.7685C3.59754 86.7277 3.50379 86.7074 3.39489 86.7074H2.81392V87.5597ZM2.81392 86.3281H3.33523C3.42614 86.3281 3.50805 86.3116 3.58097 86.2784C3.65388 86.2443 3.71117 86.1965 3.75284 86.1349C3.79545 86.0724 3.81676 85.9986 3.81676 85.9134C3.81676 85.8007 3.77699 85.7079 3.69744 85.6349C3.61884 85.562 3.50189 85.5256 3.34659 85.5256H2.81392V86.3281ZM4.91584 88V85.0909H6.00675C6.23023 85.0909 6.41773 85.1297 6.56925 85.2074C6.72171 85.285 6.83677 85.3939 6.91442 85.5341C6.99302 85.6733 7.03232 85.8357 7.03232 86.0213C7.03232 86.2079 6.99254 86.3698 6.913 86.5071C6.8344 86.6435 6.71839 86.7491 6.56499 86.8239C6.41158 86.8977 6.22313 86.9347 5.99964 86.9347H5.22266V86.4972H5.92862C6.0593 86.4972 6.16631 86.4792 6.24964 86.4432C6.33298 86.4062 6.39453 86.3527 6.4343 86.2827C6.47502 86.2116 6.49538 86.1245 6.49538 86.0213C6.49538 85.9181 6.47502 85.83 6.4343 85.7571C6.39358 85.6832 6.33156 85.6274 6.24822 85.5895C6.16489 85.5507 6.05741 85.5312 5.92578 85.5312H5.44283V88H4.91584ZM6.41868 86.6818L7.13885 88H6.55078L5.84339 86.6818H6.41868ZM8.04439 85.0909V88H7.5174V85.0909H8.04439ZM8.98864 88H8.42614L9.45028 85.0909H10.1009L11.1264 88H10.5639L9.78693 85.6875H9.7642L8.98864 88ZM9.0071 86.8594H10.5412V87.2827H9.0071V86.8594ZM13.9002 85.0909V88H13.4315L12.0607 86.0185H12.0366V88H11.5096V85.0909H11.9812L13.3505 87.0739H13.3761V85.0909H13.9002ZM16.0788 88L15.2578 85.0909H15.8246L16.3487 87.2287H16.3757L16.9354 85.0909H17.451L18.0121 87.2301H18.0376L18.5618 85.0909H19.1286L18.3075 88H17.7876L17.2053 85.9588H17.1825L16.5987 88H16.0788ZM19.494 88V85.0909H21.386V85.5327H20.021V86.3224H21.288V86.7642H20.021V87.5582H21.3974V88H19.494ZM21.9237 88V85.0909H22.4506V87.5582H23.7319V88H21.9237ZM26.6754 86.5455C26.6754 86.8589 26.6167 87.1274 26.4993 87.3509C26.3828 87.5734 26.2237 87.7438 26.022 87.8622C25.8213 87.9806 25.5935 88.0398 25.3388 88.0398C25.084 88.0398 24.8558 87.9806 24.6541 87.8622C24.4534 87.7429 24.2943 87.572 24.1768 87.3494C24.0604 87.1259 24.0021 86.858 24.0021 86.5455C24.0021 86.232 24.0604 85.964 24.1768 85.7415C24.2943 85.518 24.4534 85.3471 24.6541 85.2287C24.8558 85.1103 25.084 85.0511 25.3388 85.0511C25.5935 85.0511 25.8213 85.1103 26.022 85.2287C26.2237 85.3471 26.3828 85.518 26.4993 85.7415C26.6167 85.964 26.6754 86.232 26.6754 86.5455ZM26.1456 86.5455C26.1456 86.3248 26.111 86.1387 26.0419 85.9872C25.9737 85.8348 25.879 85.7197 25.7578 85.642C25.6366 85.5634 25.4969 85.5241 25.3388 85.5241C25.1806 85.5241 25.041 85.5634 24.9197 85.642C24.7985 85.7197 24.7034 85.8348 24.6342 85.9872C24.5661 86.1387 24.532 86.3248 24.532 86.5455C24.532 86.7661 24.5661 86.9527 24.6342 87.1051C24.7034 87.2566 24.7985 87.3717 24.9197 87.4503C25.041 87.5279 25.1806 87.5668 25.3388 87.5668C25.4969 87.5668 25.6366 87.5279 25.7578 87.4503C25.879 87.3717 25.9737 87.2566 26.0419 87.1051C26.111 86.9527 26.1456 86.7661 26.1456 86.5455ZM27.1737 88V85.0909H28.2873C28.4975 85.0909 28.6722 85.1241 28.8114 85.1903C28.9516 85.2557 29.0562 85.3452 29.1254 85.4588C29.1954 85.5724 29.2305 85.7012 29.2305 85.8452C29.2305 85.9635 29.2077 86.0649 29.1623 86.1491C29.1168 86.2325 29.0558 86.3002 28.979 86.3523C28.9023 86.4044 28.8166 86.4418 28.7219 86.4645V86.4929C28.8252 86.4986 28.9241 86.5303 29.0188 86.5881C29.1145 86.6449 29.1926 86.7254 29.2532 86.8295C29.3138 86.9337 29.3441 87.0597 29.3441 87.2074C29.3441 87.358 29.3076 87.4934 29.2347 87.6136C29.1618 87.733 29.052 87.8272 28.9052 87.8963C28.7584 87.9654 28.5737 88 28.3512 88H27.1737ZM27.7006 87.5597H28.2674C28.4587 87.5597 28.5965 87.5232 28.6808 87.4503C28.766 87.3764 28.8086 87.2817 28.8086 87.1662C28.8086 87.08 28.7873 87.0024 28.7447 86.9332C28.7021 86.8632 28.6415 86.8082 28.5629 86.7685C28.4843 86.7277 28.3905 86.7074 28.2816 86.7074H27.7006V87.5597ZM27.7006 86.3281H28.2219C28.3129 86.3281 28.3948 86.3116 28.4677 86.2784C28.5406 86.2443 28.5979 86.1965 28.6396 86.1349C28.6822 86.0724 28.7035 85.9986 28.7035 85.9134C28.7035 85.8007 28.6637 85.7079 28.5842 85.6349C28.5056 85.562 28.3886 85.5256 28.2333 85.5256H27.7006V86.3281ZM30.1761 88H29.6136L30.6378 85.0909H31.2884L32.3139 88H31.7514L30.9744 85.6875H30.9517L30.1761 88ZM30.1946 86.8594H31.7287V87.2827H30.1946V86.8594ZM33.6893 88V85.0909H35.5529V85.5327H34.2163V86.3224H35.4251V86.7642H34.2163V88H33.6893ZM38.6325 86.5455C38.6325 86.8589 38.5737 87.1274 38.4563 87.3509C38.3398 87.5734 38.1808 87.7438 37.979 87.8622C37.7783 87.9806 37.5505 88.0398 37.2958 88.0398C37.0411 88.0398 36.8129 87.9806 36.6112 87.8622C36.4104 87.7429 36.2513 87.572 36.1339 87.3494C36.0174 87.1259 35.9592 86.858 35.9592 86.5455C35.9592 86.232 36.0174 85.964 36.1339 85.7415C36.2513 85.518 36.4104 85.3471 36.6112 85.2287C36.8129 85.1103 37.0411 85.0511 37.2958 85.0511C37.5505 85.0511 37.7783 85.1103 37.979 85.2287C38.1808 85.3471 38.3398 85.518 38.4563 85.7415C38.5737 85.964 38.6325 86.232 38.6325 86.5455ZM38.1026 86.5455C38.1026 86.3248 38.0681 86.1387 37.9989 85.9872C37.9308 85.8348 37.8361 85.7197 37.7148 85.642C37.5936 85.5634 37.454 85.5241 37.2958 85.5241C37.1377 85.5241 36.998 85.5634 36.8768 85.642C36.7556 85.7197 36.6604 85.8348 36.5913 85.9872C36.5231 86.1387 36.489 86.3248 36.489 86.5455C36.489 86.7661 36.5231 86.9527 36.5913 87.1051C36.6604 87.2566 36.7556 87.3717 36.8768 87.4503C36.998 87.5279 37.1377 87.5668 37.2958 87.5668C37.454 87.5668 37.5936 87.5279 37.7148 87.4503C37.8361 87.3717 37.9308 87.2566 37.9989 87.1051C38.0681 86.9527 38.1026 86.7661 38.1026 86.5455ZM39.1307 88V85.0909H40.2216C40.4451 85.0909 40.6326 85.1297 40.7841 85.2074C40.9366 85.285 41.0516 85.3939 41.1293 85.5341C41.2079 85.6733 41.2472 85.8357 41.2472 86.0213C41.2472 86.2079 41.2074 86.3698 41.1278 86.5071C41.0492 86.6435 40.9332 86.7491 40.7798 86.8239C40.6264 86.8977 40.438 86.9347 40.2145 86.9347H39.4375V86.4972H40.1435C40.2741 86.4972 40.3812 86.4792 40.4645 86.4432C40.5478 86.4062 40.6094 86.3527 40.6491 86.2827C40.6899 86.2116 40.7102 86.1245 40.7102 86.0213C40.7102 85.9181 40.6899 85.83 40.6491 85.7571C40.6084 85.6832 40.5464 85.6274 40.4631 85.5895C40.3797 85.5507 40.2723 85.5312 40.1406 85.5312H39.6577V88H39.1307ZM40.6335 86.6818L41.3537 88H40.7656L40.0582 86.6818H40.6335ZM42.7244 88V85.0909H43.8381C44.0483 85.0909 44.223 85.1241 44.3622 85.1903C44.5024 85.2557 44.607 85.3452 44.6761 85.4588C44.7462 85.5724 44.7812 85.7012 44.7812 85.8452C44.7812 85.9635 44.7585 86.0649 44.7131 86.1491C44.6676 86.2325 44.6065 86.3002 44.5298 86.3523C44.4531 86.4044 44.3674 86.4418 44.2727 86.4645V86.4929C44.3759 86.4986 44.4749 86.5303 44.5696 86.5881C44.6652 86.6449 44.7434 86.7254 44.804 86.8295C44.8646 86.9337 44.8949 87.0597 44.8949 87.2074C44.8949 87.358 44.8584 87.4934 44.7855 87.6136C44.7126 87.733 44.6027 87.8272 44.456 87.8963C44.3092 87.9654 44.1245 88 43.902 88H42.7244ZM43.2514 87.5597H43.8182C44.0095 87.5597 44.1473 87.5232 44.2315 87.4503C44.3168 87.3764 44.3594 87.2817 44.3594 87.1662C44.3594 87.08 44.3381 87.0024 44.2955 86.9332C44.2528 86.8632 44.1922 86.8082 44.1136 86.7685C44.035 86.7277 43.9413 86.7074 43.8324 86.7074H43.2514V87.5597ZM43.2514 86.3281H43.7727C43.8636 86.3281 43.9455 86.3116 44.0185 86.2784C44.0914 86.2443 44.1487 86.1965 44.1903 86.1349C44.233 86.0724 44.2543 85.9986 44.2543 85.9134C44.2543 85.8007 44.2145 85.7079 44.1349 85.6349C44.0563 85.562 43.9394 85.5256 43.7841 85.5256H43.2514V86.3281ZM45.3533 88V85.0909H46.4442C46.6677 85.0909 46.8552 85.1297 47.0067 85.2074C47.1592 85.285 47.2743 85.3939 47.3519 85.5341C47.4305 85.6733 47.4698 85.8357 47.4698 86.0213C47.4698 86.2079 47.43 86.3698 47.3505 86.5071C47.2719 86.6435 47.1559 86.7491 47.0025 86.8239C46.8491 86.8977 46.6606 86.9347 46.4371 86.9347H45.6602V86.4972H46.3661C46.4968 86.4972 46.6038 86.4792 46.6871 86.4432C46.7705 86.4062 46.832 86.3527 46.8718 86.2827C46.9125 86.2116 46.9329 86.1245 46.9329 86.0213C46.9329 85.9181 46.9125 85.83 46.8718 85.7571C46.8311 85.6832 46.7691 85.6274 46.6857 85.5895C46.6024 85.5507 46.4949 85.5312 46.3633 85.5312H45.8803V88H45.3533ZM46.8562 86.6818L47.5763 88H46.9883L46.2809 86.6818H46.8562ZM48.4819 85.0909V88H47.9549V85.0909H48.4819ZM49.4261 88H48.8636L49.8878 85.0909H50.5384L51.5639 88H51.0014L50.2244 85.6875H50.2017L49.4261 88ZM49.4446 86.8594H50.9787V87.2827H49.4446V86.8594ZM54.3377 85.0909V88H53.869L52.4982 86.0185H52.4741V88H51.9471V85.0909H52.4187L53.788 87.0739H53.8136V85.0909H54.3377ZM55.9041 88V85.0909H57.0178C57.228 85.0909 57.4027 85.1241 57.5419 85.1903C57.6821 85.2557 57.7867 85.3452 57.8558 85.4588C57.9259 85.5724 57.9609 85.7012 57.9609 85.8452C57.9609 85.9635 57.9382 86.0649 57.8928 86.1491C57.8473 86.2325 57.7862 86.3002 57.7095 86.3523C57.6328 86.4044 57.5471 86.4418 57.4524 86.4645V86.4929C57.5556 86.4986 57.6546 86.5303 57.7493 86.5881C57.8449 86.6449 57.9231 86.7254 57.9837 86.8295C58.0443 86.9337 58.0746 87.0597 58.0746 87.2074C58.0746 87.358 58.0381 87.4934 57.9652 87.6136C57.8923 87.733 57.7824 87.8272 57.6357 87.8963C57.4889 87.9654 57.3042 88 57.0817 88H55.9041ZM56.4311 87.5597H56.9979C57.1892 87.5597 57.3269 87.5232 57.4112 87.4503C57.4964 87.3764 57.5391 87.2817 57.5391 87.1662C57.5391 87.08 57.5178 87.0024 57.4751 86.9332C57.4325 86.8632 57.3719 86.8082 57.2933 86.7685C57.2147 86.7277 57.121 86.7074 57.0121 86.7074H56.4311V87.5597ZM56.4311 86.3281H56.9524C57.0433 86.3281 57.1252 86.3116 57.1982 86.2784C57.2711 86.2443 57.3284 86.1965 57.37 86.1349C57.4126 86.0724 57.4339 85.9986 57.4339 85.9134C57.4339 85.8007 57.3942 85.7079 57.3146 85.6349C57.236 85.562 57.1191 85.5256 56.9638 85.5256H56.4311V86.3281ZM58.3342 85.0909H58.9293L59.641 86.3778H59.6694L60.381 85.0909H60.9762L59.918 86.9148V88H59.3924V86.9148L58.3342 85.0909ZM62.3416 88V85.0909H63.4553C63.6655 85.0909 63.8402 85.1241 63.9794 85.1903C64.1196 85.2557 64.2242 85.3452 64.2933 85.4588C64.3634 85.5724 64.3984 85.7012 64.3984 85.8452C64.3984 85.9635 64.3757 86.0649 64.3303 86.1491C64.2848 86.2325 64.2237 86.3002 64.147 86.3523C64.0703 86.4044 63.9846 86.4418 63.8899 86.4645V86.4929C63.9931 86.4986 64.0921 86.5303 64.1868 86.5881C64.2824 86.6449 64.3606 86.7254 64.4212 86.8295C64.4818 86.9337 64.5121 87.0597 64.5121 87.2074C64.5121 87.358 64.4756 87.4934 64.4027 87.6136C64.3298 87.733 64.2199 87.8272 64.0732 87.8963C63.9264 87.9654 63.7417 88 63.5192 88H62.3416ZM62.8686 87.5597H63.4354C63.6267 87.5597 63.7644 87.5232 63.8487 87.4503C63.9339 87.3764 63.9766 87.2817 63.9766 87.1662C63.9766 87.08 63.9553 87.0024 63.9126 86.9332C63.87 86.8632 63.8094 86.8082 63.7308 86.7685C63.6522 86.7277 63.5585 86.7074 63.4496 86.7074H62.8686V87.5597ZM62.8686 86.3281H63.3899C63.4808 86.3281 63.5627 86.3116 63.6357 86.2784C63.7086 86.2443 63.7659 86.1965 63.8075 86.1349C63.8501 86.0724 63.8714 85.9986 63.8714 85.9134C63.8714 85.8007 63.8317 85.7079 63.7521 85.6349C63.6735 85.562 63.5566 85.5256 63.4013 85.5256H62.8686V86.3281ZM64.9705 88V85.0909H66.0614C66.2849 85.0909 66.4724 85.1297 66.6239 85.2074C66.7764 85.285 66.8915 85.3939 66.9691 85.5341C67.0477 85.6733 67.087 85.8357 67.087 86.0213C67.087 86.2079 67.0472 86.3698 66.9677 86.5071C66.8891 86.6435 66.7731 86.7491 66.6197 86.8239C66.4663 86.8977 66.2778 86.9347 66.0543 86.9347H65.2773V86.4972H65.9833C66.114 86.4972 66.221 86.4792 66.3043 86.4432C66.3877 86.4062 66.4492 86.3527 66.489 86.2827C66.5297 86.2116 66.5501 86.1245 66.5501 86.0213C66.5501 85.9181 66.5297 85.83 66.489 85.7571C66.4483 85.6832 66.3862 85.6274 66.3029 85.5895C66.2196 85.5507 66.1121 85.5312 65.9805 85.5312H65.4975V88H64.9705ZM66.4734 86.6818L67.1935 88H66.6055L65.8981 86.6818H66.4734ZM68.0991 85.0909V88H67.5721V85.0909H68.0991ZM69.0433 88H68.4808L69.505 85.0909H70.1555L71.1811 88H70.6186L69.8416 85.6875H69.8189L69.0433 88ZM69.0618 86.8594H70.5959V87.2827H69.0618V86.8594ZM73.9549 85.0909V88H73.4862L72.1154 86.0185H72.0913V88H71.5643V85.0909H72.0359L73.4052 87.0739H73.4308V85.0909H73.9549ZM76.1335 88L75.3125 85.0909H75.8793L76.4034 87.2287H76.4304L76.9901 85.0909H77.5057L78.0668 87.2301H78.0923L78.6165 85.0909H79.1832L78.3622 88H77.8423L77.2599 85.9588H77.2372L76.6534 88H76.1335ZM79.5487 88V85.0909H81.4407V85.5327H80.0756V86.3224H81.3427V86.7642H80.0756V87.5582H81.4521V88H79.5487ZM81.9783 88V85.0909H82.5053V87.5582H83.7866V88H81.9783ZM86.7301 86.5455C86.7301 86.8589 86.6714 87.1274 86.554 87.3509C86.4375 87.5734 86.2784 87.7438 86.0767 87.8622C85.8759 87.9806 85.6482 88.0398 85.3935 88.0398C85.1387 88.0398 84.9105 87.9806 84.7088 87.8622C84.508 87.7429 84.349 87.572 84.2315 87.3494C84.1151 87.1259 84.0568 86.858 84.0568 86.5455C84.0568 86.232 84.1151 85.964 84.2315 85.7415C84.349 85.518 84.508 85.3471 84.7088 85.2287C84.9105 85.1103 85.1387 85.0511 85.3935 85.0511C85.6482 85.0511 85.8759 85.1103 86.0767 85.2287C86.2784 85.3471 86.4375 85.518 86.554 85.7415C86.6714 85.964 86.7301 86.232 86.7301 86.5455ZM86.2003 86.5455C86.2003 86.3248 86.1657 86.1387 86.0966 85.9872C86.0284 85.8348 85.9337 85.7197 85.8125 85.642C85.6913 85.5634 85.5516 85.5241 85.3935 85.5241C85.2353 85.5241 85.0956 85.5634 84.9744 85.642C84.8532 85.7197 84.758 85.8348 84.6889 85.9872C84.6207 86.1387 84.5866 86.3248 84.5866 86.5455C84.5866 86.7661 84.6207 86.9527 84.6889 87.1051C84.758 87.2566 84.8532 87.3717 84.9744 87.4503C85.0956 87.5279 85.2353 87.5668 85.3935 87.5668C85.5516 87.5668 85.6913 87.5279 85.8125 87.4503C85.9337 87.3717 86.0284 87.2566 86.0966 87.1051C86.1657 86.9527 86.2003 86.7661 86.2003 86.5455ZM87.2283 88V85.0909H88.342C88.5522 85.0909 88.7269 85.1241 88.8661 85.1903C89.0063 85.2557 89.1109 85.3452 89.18 85.4588C89.2501 85.5724 89.2852 85.7012 89.2852 85.8452C89.2852 85.9635 89.2624 86.0649 89.217 86.1491C89.1715 86.2325 89.1104 86.3002 89.0337 86.3523C88.957 86.4044 88.8713 86.4418 88.7766 86.4645V86.4929C88.8799 86.4986 88.9788 86.5303 89.0735 86.5881C89.1692 86.6449 89.2473 86.7254 89.3079 86.8295C89.3685 86.9337 89.3988 87.0597 89.3988 87.2074C89.3988 87.358 89.3623 87.4934 89.2894 87.6136C89.2165 87.733 89.1067 87.8272 88.9599 87.8963C88.8131 87.9654 88.6284 88 88.4059 88H87.2283ZM87.7553 87.5597H88.3221C88.5134 87.5597 88.6512 87.5232 88.7354 87.4503C88.8207 87.3764 88.8633 87.2817 88.8633 87.1662C88.8633 87.08 88.842 87.0024 88.7994 86.9332C88.7567 86.8632 88.6961 86.8082 88.6175 86.7685C88.5389 86.7277 88.4452 86.7074 88.3363 86.7074H87.7553V87.5597ZM87.7553 86.3281H88.2766C88.3675 86.3281 88.4495 86.3116 88.5224 86.2784C88.5953 86.2443 88.6526 86.1965 88.6942 86.1349C88.7369 86.0724 88.7582 85.9986 88.7582 85.9134C88.7582 85.8007 88.7184 85.7079 88.6388 85.6349C88.5603 85.562 88.4433 85.5256 88.288 85.5256H87.7553V86.3281ZM90.2308 88H89.6683L90.6925 85.0909H91.343L92.3686 88H91.8061L91.0291 85.6875H91.0064L90.2308 88ZM90.2493 86.8594H91.7834V87.2827H90.2493V86.8594Z" fill="black"/>
</svg>
